<svg width="19" height="21" viewBox="0 0 19 21" fill="none" xmlns="http://www.w3.org/2000/svg">
<path d="M3.24253 19.2497L3.25226 19.25H3.262H17.5V19.75H3.25C2.79195 19.75 2.21249 19.5933 1.76356 19.2376C1.34167 18.9032 1 18.3687 1 17.5V3.5C1 2.63129 1.34167 2.09676 1.76356 1.76244C2.21249 1.40668 2.79195 1.25 3.25 1.25H16.25C16.9388 1.25 17.5 1.81121 17.5 2.5V15.75H3.262H3.25226L3.24253 15.7503C2.94159 15.7581 2.50527 15.8203 2.13018 16.1042C1.71459 16.4187 1.5 16.9068 1.5 17.5C1.5 18.0932 1.71459 18.5813 2.13018 18.8958C2.50527 19.1797 2.94159 19.2419 3.24253 19.2497Z" fill="#F96161" stroke="#F96161" stroke-width="1.5"/>
</svg>
