<svg width="22" height="21" viewBox="0 0 22 21" fill="none" xmlns="http://www.w3.org/2000/svg">
<path d="M14.5008 4.0636L19.8408 9.4C20.2152 9.79 20.5008 10.0744 20.5008 10.6C20.5008 11.2756 19.9824 11.8 19.3008 11.8H18.1008V19C18.1008 19.66 17.5608 20.2 16.9008 20.2H13.9008C13.238 20.2 13.3008 19.6627 13.3008 19V14.2C13.3008 13.54 12.7608 13 12.1008 13H9.70078C9.04078 13 8.50078 13.54 8.50078 14.2V19C8.50078 19.6627 7.96352 20.2 7.30078 20.2H4.90078C4.24078 20.2 3.70078 19.66 3.70078 19V11.8H2.50078C1.81918 11.8 1.30078 11.2756 1.30078 10.6C1.30078 10.0744 1.58638 9.79 1.96078 9.4L9.70078 1.666C10.0284 1.3564 10.3284 1 10.9008 1C11.4732 1 11.7732 1.3564 12.1008 1.666L14.5008 4.0636Z" fill="#F96161" stroke="#F96161" stroke-width="1.5" stroke-linejoin="round"/>
</svg>
