<svg width="8" height="12" viewBox="0 0 8 12" fill="none" xmlns="http://www.w3.org/2000/svg">
<path d="M3.28994 6.00019L6.82994 2.46019C7.01619 2.27283 7.12074 2.01938 7.12074 1.75519C7.12074 1.49101 7.01619 1.23756 6.82994 1.05019C6.73698 0.956464 6.62638 0.88207 6.50452 0.831301C6.38266 0.780533 6.25196 0.754395 6.11994 0.754395C5.98793 0.754395 5.85723 0.780533 5.73537 0.831301C5.61351 0.88207 5.50291 0.956464 5.40994 1.05019L1.16994 5.29019C1.07622 5.38316 1.00182 5.49376 0.951053 5.61562C0.900284 5.73747 0.874146 5.86818 0.874146 6.00019C0.874146 6.1322 0.900284 6.26291 0.951053 6.38477C1.00182 6.50663 1.07622 6.61723 1.16994 6.71019L5.40994 11.0002C5.50338 11.0929 5.6142 11.1662 5.73604 11.216C5.85787 11.2657 5.98834 11.291 6.11994 11.2902C6.25155 11.291 6.38201 11.2657 6.50385 11.216C6.62569 11.1662 6.7365 11.0929 6.82994 11.0002C7.01619 10.8128 7.12074 10.5594 7.12074 10.2952C7.12074 10.031 7.01619 9.77756 6.82994 9.59019L3.28994 6.00019Z" fill="#2A2A2A"/>
</svg>
