<svg width="22" height="18" viewBox="0 0 22 18" fill="none" xmlns="http://www.w3.org/2000/svg">
<path d="M20.9104 11.2801C20.7694 11.1366 20.5766 11.0557 20.3754 11.0557C20.1742 11.0557 19.9814 11.1366 19.8404 11.2801L16.4404 14.6901V5.69009C16.4404 5.27587 16.1046 4.94009 15.6904 4.94009C15.2762 4.94009 14.9404 5.27587 14.9404 5.69009V14.6901L11.5304 11.2801C11.3411 11.0889 11.0641 11.0133 10.8039 11.0818C10.5437 11.1502 10.3398 11.3522 10.2689 11.6118C10.1981 11.8713 10.2711 12.1489 10.4604 12.3401L15.1604 17.0001C15.2279 17.0702 15.3098 17.1248 15.4004 17.1601C15.4919 17.2 15.5907 17.2204 15.6904 17.2201C15.787 17.2205 15.8825 17.2 15.9704 17.1601C16.064 17.1247 16.1491 17.0702 16.2204 17.0001L20.9104 12.3101C21.1835 12.021 21.1835 11.5691 20.9104 11.2801Z" fill="#2A2A2A"/>
<path d="M10.4704 6.72009C10.7667 7.0137 11.2442 7.0137 11.5404 6.72009C11.8329 6.42727 11.8329 5.9529 11.5404 5.66009L6.84043 1.00009C6.773 0.92996 6.6911 0.875361 6.60043 0.840085C6.41688 0.770102 6.21399 0.770102 6.03043 0.840085C5.93806 0.877767 5.85334 0.931988 5.78043 1.00009L1.09043 5.66009C0.79798 5.9529 0.79798 6.42727 1.09043 6.72009C1.22972 6.86303 1.42085 6.94366 1.62043 6.94366C1.82002 6.94366 2.01115 6.86303 2.15043 6.72009L5.56043 3.31009V12.3101C5.56043 12.578 5.70338 12.8256 5.93543 12.9596C6.16748 13.0936 6.45338 13.0936 6.68543 12.9596C6.91748 12.8256 7.06043 12.578 7.06043 12.3101V3.31009L10.4704 6.72009Z" fill="#2A2A2A"/>
</svg>
