<svg width="56" height="57" viewBox="0 0 56 57" fill="none" xmlns="http://www.w3.org/2000/svg">
<path fill-rule="evenodd" clip-rule="evenodd" d="M49.7549 11.6484C43.9086 20.3406 26.2987 37.922 26.2987 37.922L26.2918 37.9151C26.2504 37.9604 26.213 38.0077 26.1687 38.052C25.0619 39.1568 23.5602 39.6039 22.1175 39.4335C22.5813 41.3754 22.0919 43.5074 20.6119 45.0248C20.6119 45.0248 13.2067 54.1818 5 48.4123C5 48.4123 9.42537 47.1725 9.8104 43.6019C9.8104 43.6019 9.21956 40.0037 12.4682 36.6694C13.9246 35.1746 15.962 34.6616 17.83 35.0978C17.6804 33.6758 18.1284 32.2027 19.2195 31.1126C19.2628 31.0683 19.3111 31.0309 19.3564 30.9885L19.3495 30.9816C19.3495 30.9816 36.9485 13.3904 45.6535 7.55197C46.8057 6.72775 48.4147 6.82425 49.4487 7.85723C50.4856 8.89218 50.5811 10.4983 49.7549 11.6484ZM19.2411 38.0067C18.5105 37.276 17.5632 36.8595 16.5499 36.8595C15.5327 36.8595 14.5716 37.2691 13.8478 38.0126C11.3515 40.5748 11.7257 43.5113 11.7355 43.6029C11.5209 45.592 10.3934 47.2868 9.21759 48.306C9.63315 48.3818 10.0536 48.4202 10.483 48.4202C15.1604 48.4202 19.1013 43.8313 19.1377 43.788C19.1377 43.788 21.8349 40.6014 19.2411 38.0067ZM19.7709 34.5818C19.7709 35.3656 20.0555 36.1042 20.6119 36.6586C21.1683 37.214 21.9393 37.536 22.7251 37.536C23.5109 37.536 24.2209 37.215 24.7596 36.6753L26.2898 35.1293C26.3676 35.0495 26.474 34.9412 26.5597 34.8536L22.4267 30.7207C22.3361 30.8083 22.2249 30.9156 22.1441 30.9954L20.6109 32.5089C20.0555 33.0624 19.7709 33.7979 19.7709 34.5818ZM48.0583 9.25259C47.813 9.0074 47.5265 8.97096 47.3758 8.97096C47.1671 8.97096 46.9682 9.03398 46.7505 9.18957C40.6275 13.2959 29.0264 24.3219 23.8054 29.3795L27.9009 33.475C32.9624 28.2598 44.015 16.6528 48.1548 10.4993C48.4344 10.1113 48.394 9.58642 48.0583 9.25259Z" fill="#F96161"/>
</svg>
