<svg width="28" height="29" viewBox="0 0 28 29" fill="none" xmlns="http://www.w3.org/2000/svg">
<path d="M16.473 10.6514C16.473 8.35862 14.6144 6.5 12.3216 6.5C10.0289 6.5 8.17027 8.35862 8.17027 10.6514M5.57568 25.7H18.5487C19.695 25.7 20.6243 24.7707 20.6243 23.6243V12.727C20.6243 11.5807 19.695 10.6514 18.5487 10.6514H5.57568C4.42931 10.6514 3.5 11.5807 3.5 12.727V23.6243C3.5 24.7707 4.42931 25.7 5.57568 25.7Z" stroke="#888888" stroke-width="1.5" stroke-linecap="round" stroke-linejoin="round"/>
<rect x="12.5" y="1" width="15" height="15" rx="7.5" fill="#F96161"/>
<rect x="12.5" y="1" width="15" height="15" rx="7.5" stroke="white"/>
<path d="M21.8987 11.5H17.0887V10.66L18.9387 8.8C19.2987 8.43333 19.5953 8.11667 19.8287 7.85C20.0687 7.57667 20.2453 7.31667 20.3587 7.07C20.4787 6.82333 20.5387 6.55333 20.5387 6.26C20.5387 5.90667 20.4353 5.64 20.2287 5.46C20.022 5.27333 19.7487 5.18 19.4087 5.18C19.0887 5.18 18.7953 5.24333 18.5287 5.37C18.2687 5.49 18.002 5.66 17.7287 5.88L17.1387 5.16C17.332 4.99333 17.542 4.84333 17.7687 4.71C17.9953 4.57 18.2453 4.46 18.5187 4.38C18.7987 4.3 19.1087 4.26 19.4487 4.26C19.902 4.26 20.292 4.34 20.6187 4.5C20.9453 4.66 21.1953 4.88333 21.3687 5.17C21.5487 5.45 21.6387 5.78333 21.6387 6.17C21.6387 6.55 21.562 6.90333 21.4087 7.23C21.2553 7.55667 21.0387 7.88 20.7587 8.2C20.4787 8.51333 20.1453 8.85667 19.7587 9.23L18.4587 10.49V10.54H21.8987V11.5Z" fill="white"/>
</svg>
