<svg width="56" height="57" viewBox="0 0 56 57" fill="none" xmlns="http://www.w3.org/2000/svg">
<path d="M37.286 53.0989C39.0824 53.0989 39.0824 55.8299 37.286 55.8299H8.47908C6.08672 55.8299 4.12891 53.8707 4.12891 51.479V12.0741C4.12891 9.67846 6.08341 7.72396 8.47908 7.72396H8.81376V2.53576C8.81376 1.78174 9.42492 1.16992 10.1789 1.16992H50.5065C51.2605 1.16992 51.8717 1.78174 51.8717 2.53576V43.1517C51.8717 43.9057 51.2605 44.5176 50.5065 44.5176H45.9659V48.3439C45.9659 50.1403 43.2348 50.1403 43.2348 48.3439V21.3545L34.5424 10.455H8.47908C7.59145 10.455 6.85992 11.1865 6.85992 12.0741V51.479C6.85992 52.3713 7.58748 53.0989 8.47908 53.0989H37.286ZM11.5448 7.72396H35.1966C35.6596 7.72396 36.0683 7.95413 36.315 8.30601L45.6669 20.033C45.8666 20.2837 45.9632 20.5833 45.9632 20.881L45.9659 41.7865H49.1407V3.90093H11.5448V7.72396ZM12.2042 38.2737C10.4078 38.2737 10.4078 35.5427 12.2042 35.5427H33.5966C35.3924 35.5427 35.3924 38.2737 33.5966 38.2737H12.2042ZM12.3491 48.9696C10.5526 48.9696 10.5526 46.2386 12.3491 46.2386H33.7408C35.5372 46.2386 35.5372 48.9696 33.7408 48.9696H12.3491ZM12.3491 43.6213C10.5526 43.6213 10.5526 40.8903 12.3491 40.8903H33.7408C35.5372 40.8903 35.5372 43.6213 33.7408 43.6213H12.3491ZM16.9737 14.5836H23.334C26.393 14.5836 28.8912 17.0818 28.8912 20.1408V26.5011C28.8912 29.5602 26.393 32.0583 23.334 32.0583H16.9737C13.9147 32.0583 11.4171 29.5602 11.4171 26.5011V20.1408C11.4171 17.0818 13.9147 14.5836 16.9737 14.5836ZM23.334 17.3152H16.9737C15.4227 17.3152 14.1481 18.5898 14.1481 20.1408V26.5011C14.1481 28.0521 15.4227 29.3273 16.9737 29.3273H23.334C24.8857 29.3273 26.1602 28.0521 26.1602 26.5011V20.1408C26.1602 18.5898 24.885 17.3152 23.334 17.3152Z" fill="#F96161"/>
</svg>
