<svg width="56" height="57" viewBox="0 0 56 57" fill="none" xmlns="http://www.w3.org/2000/svg">
<path d="M49.0003 25.6298V14.4998C49.0003 11.3032 42.3503 9.83317 36.167 9.83317C34.2129 9.82561 32.2617 9.98171 30.3337 10.2998V9.83317C30.3337 6.6365 23.6837 5.1665 17.5003 5.1665C11.317 5.1665 4.66699 6.6365 4.66699 9.83317V44.8332C4.66699 48.0298 11.317 49.4998 17.5003 49.4998C19.7166 49.5037 21.9281 49.2927 24.1037 48.8698C27.3809 51.0782 31.3099 52.1107 35.2495 51.7988C39.1891 51.4868 42.9066 49.8489 45.7955 47.1522C48.6844 44.4556 50.574 40.8595 51.156 36.9507C51.7381 33.0419 50.9782 29.0512 49.0003 25.6298ZM41.7437 18.7465C43.4469 18.5217 45.1066 18.0419 46.667 17.3232V22.4798C45.2586 20.9551 43.5919 19.6912 41.7437 18.7465ZM17.5003 14.4998C21.0911 14.6319 24.6693 14.0038 28.0003 12.6565V16.8332C27.8137 17.4865 24.3137 19.1665 17.5003 19.1665C10.687 19.1665 7.18699 17.4632 7.00033 16.8332V12.6565C10.3314 14.0038 13.9096 14.6319 17.5003 14.4998ZM17.3603 28.4998C16.7882 29.9958 16.4422 31.5686 16.3337 33.1665C10.267 32.9798 7.11699 31.4632 7.00033 30.8332V26.6565C10.2893 27.9798 13.8167 28.6075 17.3603 28.4998ZM7.00033 37.8332V33.6565C9.95605 34.8916 13.1303 35.5185 16.3337 35.4998C16.4456 37.0929 16.7753 38.663 17.3137 40.1665C10.6403 40.1665 7.18699 38.4632 7.00033 37.8332ZM18.387 26.1665H17.5003C10.687 26.1665 7.18699 24.4632 7.00033 23.8332V19.6565C10.3314 21.0038 13.9096 21.6319 17.5003 21.4998C19.1075 21.5056 20.7133 21.4043 22.307 21.1965C20.7102 22.6022 19.382 24.2862 18.387 26.1665ZM36.167 12.1665C43.0037 12.1665 46.5037 13.8698 46.667 14.4998C46.8303 15.1298 43.0037 16.8332 36.167 16.8332C34.2121 16.8376 32.2604 16.6737 30.3337 16.3432V12.6565C32.2604 12.326 34.2121 12.162 36.167 12.1665ZM17.5003 7.49984C24.267 7.49984 27.767 9.17984 28.0003 9.83317C27.767 10.4632 24.5003 12.0265 18.2237 12.1665H17.5003C10.687 12.1665 7.18699 10.4632 7.00033 9.83317C7.18699 9.20317 10.687 7.49984 17.5003 7.49984ZM17.5003 47.1665C10.687 47.1665 7.18699 45.4632 7.00033 44.8332V40.6565C10.3314 42.0038 13.9096 42.6319 17.5003 42.4998H18.3637C19.228 44.1357 20.3464 45.6242 21.677 46.9098C20.2913 47.0805 18.8965 47.1662 17.5003 47.1665ZM33.8337 49.4998C30.834 49.4998 27.9017 48.6103 25.4075 46.9438C22.9134 45.2773 20.9694 42.9085 19.8215 40.1372C18.6736 37.3659 18.3732 34.3163 18.9584 31.3743C19.5436 28.4323 20.9881 25.7298 23.1092 23.6087C25.2303 21.4876 27.9327 20.0431 30.8748 19.4579C33.8168 18.8727 36.8663 19.1731 39.6377 20.321C42.409 21.4689 44.7777 23.4129 46.4443 25.907C48.1108 28.4012 49.0003 31.3335 49.0003 34.3332C48.9942 38.3537 47.3943 42.2078 44.5513 45.0508C41.7083 47.8938 37.8542 49.4937 33.8337 49.4998Z" fill="#F96161"/>
<path d="M34.9999 33.1663V27.7997C35.5389 27.8973 36.041 28.14 36.4521 28.5019C36.8633 28.8637 37.168 29.3308 37.3333 29.853C37.4075 30.1624 37.6017 30.4297 37.873 30.596C38.1443 30.7622 38.4705 30.8139 38.7799 30.7397C39.0894 30.6654 39.3566 30.4713 39.5229 30.2C39.6892 29.9287 39.7409 29.6024 39.6666 29.293C39.333 28.2819 38.7157 27.388 37.8883 26.7178C37.0609 26.0476 36.0583 25.6294 34.9999 25.513V24.9997C34.9999 24.6903 34.877 24.3935 34.6582 24.1747C34.4394 23.9559 34.1427 23.833 33.8333 23.833C33.5238 23.833 33.2271 23.9559 33.0083 24.1747C32.7895 24.3935 32.6666 24.6903 32.6666 24.9997V25.4897C31.4319 25.6354 30.2877 26.2108 29.4345 27.1152C28.5814 28.0195 28.0735 29.1952 27.9999 30.4363C28.0028 30.7971 28.0419 31.1567 28.1166 31.5097C28.4105 32.5421 28.9962 33.4678 29.8033 34.1755C30.6104 34.8833 31.6046 35.3431 32.6666 35.4997V40.8897C32.1277 40.7921 31.6256 40.5493 31.2144 40.1875C30.8032 39.8257 30.4986 39.3585 30.3333 38.8363C30.259 38.5269 30.0649 38.2597 29.7936 38.0934C29.5223 37.9271 29.196 37.8754 28.8866 37.9497C28.5772 38.0239 28.3099 38.2181 28.1436 38.4894C27.9774 38.7607 27.9257 39.0869 27.9999 39.3963C28.3322 40.4062 28.9496 41.2982 29.7777 41.9648C30.6058 42.6314 31.6091 43.0441 32.6666 43.153V43.6663C32.6666 43.9758 32.7895 44.2725 33.0083 44.4913C33.2271 44.7101 33.5238 44.833 33.8333 44.833C34.1427 44.833 34.4394 44.7101 34.6582 44.4913C34.877 44.2725 34.9999 43.9758 34.9999 43.6663V43.153C36.0744 43.0333 37.0899 42.6 37.9198 41.9071C38.7496 41.2141 39.3572 40.2922 39.6666 39.2563C39.7387 38.9187 39.7778 38.5749 39.7833 38.2297C39.7279 36.9516 39.214 35.7363 38.3355 34.8063C37.457 33.8764 36.2728 33.2942 34.9999 33.1663ZM30.3333 30.833C30.309 30.6628 30.309 30.4899 30.3333 30.3197C30.3937 29.7 30.654 29.1168 31.0749 28.6581C31.4958 28.1993 32.0544 27.8898 32.6666 27.7763V32.8863C32.1419 32.7966 31.6501 32.5704 31.2406 32.2305C30.831 31.8906 30.5181 31.4488 30.3333 30.9497V30.833ZM37.3333 38.7197C37.168 39.2418 36.8633 39.709 36.4521 40.0708C36.041 40.4326 35.5389 40.6754 34.9999 40.773V35.663C35.6156 35.7776 36.1769 36.0905 36.5982 36.5539C37.0195 37.0174 37.2777 37.6059 37.3333 38.2297C37.3543 38.3923 37.3543 38.557 37.3333 38.7197Z" fill="#F96161"/>
</svg>
