<svg width="25" height="25" viewBox="0 0 25 25" fill="none" xmlns="http://www.w3.org/2000/svg">
<path d="M6.24253 21.2497L6.25226 21.25H6.262H20.5V21.75H6.25C5.79195 21.75 5.21249 21.5933 4.76356 21.2376C4.34167 20.9032 4 20.3687 4 19.5V5.5C4 4.63129 4.34167 4.09676 4.76356 3.76244C5.21249 3.40668 5.79195 3.25 6.25 3.25H19.25C19.9388 3.25 20.5 3.81121 20.5 4.5V17.75H6.262H6.25226L6.24253 17.7503C5.94159 17.7581 5.50527 17.8203 5.13018 18.1042C4.71459 18.4187 4.5 18.9068 4.5 19.5C4.5 20.0932 4.71459 20.5813 5.13018 20.8958C5.50527 21.1797 5.94159 21.2419 6.24253 21.2497Z" stroke="#888888" stroke-width="1.5"/>
</svg>
