<svg width="42" height="42" viewBox="0 0 42 42" fill="none" xmlns="http://www.w3.org/2000/svg">
<path d="M24.5008 7.0636L29.8408 12.4C30.2152 12.79 30.5008 13.0744 30.5008 13.6C30.5008 14.2756 29.9824 14.8 29.3008 14.8H28.1008V22C28.1008 22.66 27.5608 23.2 26.9008 23.2H23.9008C23.238 23.2 23.3008 22.6627 23.3008 22V17.2C23.3008 16.54 22.7608 16 22.1008 16H19.7008C19.0408 16 18.5008 16.54 18.5008 17.2V22C18.5008 22.6627 17.9635 23.2 17.3008 23.2H14.9008C14.2408 23.2 13.7008 22.66 13.7008 22V14.8H12.5008C11.8192 14.8 11.3008 14.2756 11.3008 13.6C11.3008 13.0744 11.5864 12.79 11.9608 12.4L19.7008 4.666C20.0284 4.3564 20.3284 4 20.9008 4C21.4732 4 21.7732 4.3564 22.1008 4.666L24.5008 7.0636Z" fill="#F96161" stroke="#F96161" stroke-width="1.5" stroke-linejoin="round"/>
<path d="M3.35831 27.248C3.21431 27.248 3.08631 27.204 2.97431 27.116C2.86231 27.028 2.80631 26.876 2.80631 26.66C2.80631 26.444 2.86231 26.292 2.97431 26.204C3.08631 26.108 3.21431 26.06 3.35831 26.06C3.52631 26.06 3.65831 26.112 3.75431 26.216C3.85831 26.32 3.91031 26.468 3.91031 26.66C3.91031 26.852 3.86231 27 3.76631 27.104C3.67031 27.2 3.53431 27.248 3.35831 27.248ZM5.15831 27.248C4.99031 27.248 4.85431 27.2 4.75031 27.104C4.65431 27 4.60631 26.852 4.60631 26.66C4.60631 26.468 4.65431 26.32 4.75031 26.216C4.85431 26.112 4.99031 26.06 5.15831 26.06C5.34231 26.06 5.47831 26.116 5.56631 26.228C5.66231 26.332 5.71031 26.476 5.71031 26.66C5.71031 26.836 5.66231 26.98 5.56631 27.092C5.47831 27.196 5.34231 27.248 5.15831 27.248ZM3.74231 35C3.14231 35 2.62231 34.892 2.18231 34.676C1.75031 34.46 1.41831 34.152 1.18631 33.752C0.962313 33.344 0.850313 32.856 0.850313 32.288C0.850313 31.656 0.978313 31.112 1.23431 30.656C1.49031 30.2 1.85831 29.848 2.33831 29.6C2.81831 29.344 3.39431 29.216 4.06631 29.216H5.00231V28.412H5.77031V34.28H7.09031C7.13031 34.28 7.15031 34.296 7.15031 34.328V34.94C7.15031 34.98 7.13031 35 7.09031 35H3.74231ZM4.99031 34.28V29.936H4.09031C3.31431 29.936 2.71431 30.144 2.29031 30.56C1.86631 30.968 1.65431 31.536 1.65431 32.264C1.65431 32.912 1.83431 33.412 2.19431 33.764C2.55431 34.108 3.06631 34.28 3.73031 34.28H4.99031ZM8.45925 37.16C8.30725 37.16 8.17525 37.112 8.06325 37.016C7.95925 36.928 7.90725 36.78 7.90725 36.572C7.90725 36.356 7.95925 36.2 8.06325 36.104C8.17525 36.016 8.30725 35.972 8.45925 35.972C8.61925 35.972 8.75125 36.02 8.85525 36.116C8.95925 36.22 9.01125 36.372 9.01125 36.572C9.01125 36.764 8.95925 36.908 8.85525 37.004C8.75925 37.108 8.62725 37.16 8.45925 37.16ZM10.2953 37.16C10.1193 37.16 9.98325 37.108 9.88725 37.004C9.79125 36.908 9.74325 36.764 9.74325 36.572C9.74325 36.372 9.79125 36.22 9.88725 36.116C9.98325 36.02 10.1193 35.972 10.2953 35.972C10.4633 35.972 10.5953 36.024 10.6913 36.128C10.7953 36.24 10.8473 36.388 10.8473 36.572C10.8473 36.756 10.7953 36.9 10.6913 37.004C10.5953 37.108 10.4633 37.16 10.2953 37.16ZM6.97125 35C6.93125 35 6.91125 34.98 6.91125 34.94V34.328C6.91125 34.296 6.93125 34.28 6.97125 34.28H8.95125V29.216H9.76725V34.28H11.5673C11.6073 34.28 11.6273 34.296 11.6273 34.328V34.94C11.6273 34.98 11.6073 35 11.5673 35H6.97125ZM19.1018 35C18.7418 35 18.4018 34.944 18.0818 34.832C17.7618 34.712 17.4618 34.492 17.1818 34.172C17.0218 34.42 16.7978 34.62 16.5098 34.772C16.2298 34.924 15.8898 35 15.4898 35H11.5298C11.4898 35 11.4698 34.98 11.4698 34.94V34.328C11.4698 34.296 11.4898 34.28 11.5298 34.28H13.3178V30.152H14.0978V34.28H15.4538C15.8458 34.28 16.1538 34.156 16.3778 33.908C16.6098 33.66 16.7258 33.332 16.7258 32.924V30.152H17.5058V33.02C17.5058 33.076 17.5018 33.14 17.4938 33.212C17.4858 33.276 17.4818 33.34 17.4818 33.404C17.6818 33.732 17.9098 33.96 18.1658 34.088C18.4218 34.216 18.7378 34.28 19.1138 34.28H19.8338V29.216H20.6018V34.28H22.2218C22.2618 34.28 22.2818 34.296 22.2818 34.328V34.94C22.2818 34.98 22.2618 35 22.2218 35H19.1018ZM23.5882 37.16C23.4362 37.16 23.3042 37.112 23.1922 37.016C23.0882 36.928 23.0362 36.78 23.0362 36.572C23.0362 36.356 23.0882 36.2 23.1922 36.104C23.3042 36.016 23.4362 35.972 23.5882 35.972C23.7482 35.972 23.8802 36.02 23.9842 36.116C24.0882 36.22 24.1402 36.372 24.1402 36.572C24.1402 36.764 24.0882 36.908 23.9842 37.004C23.8882 37.108 23.7562 37.16 23.5882 37.16ZM25.4242 37.16C25.2482 37.16 25.1122 37.108 25.0162 37.004C24.9202 36.908 24.8722 36.764 24.8722 36.572C24.8722 36.372 24.9202 36.22 25.0162 36.116C25.1122 36.02 25.2482 35.972 25.4242 35.972C25.5922 35.972 25.7242 36.024 25.8202 36.128C25.9242 36.24 25.9762 36.388 25.9762 36.572C25.9762 36.756 25.9242 36.9 25.8202 37.004C25.7242 37.108 25.5922 37.16 25.4242 37.16ZM22.1002 35C22.0602 35 22.0402 34.98 22.0402 34.94V34.328C22.0402 34.296 22.0602 34.28 22.1002 34.28H24.0802V29.216H24.8962V34.28H26.6962C26.7362 34.28 26.7562 34.296 26.7562 34.328V34.94C26.7562 34.98 26.7362 35 26.6962 35H22.1002ZM26.6587 35C26.6187 35 26.5987 34.98 26.5987 34.94V34.328C26.5987 34.296 26.6187 34.28 26.6587 34.28H29.0468V29.216H29.8628V35H26.6587ZM28.2068 27.548L28.7588 27.464C28.6228 27.376 28.5188 27.268 28.4468 27.14C28.3828 27.004 28.3508 26.86 28.3508 26.708C28.3508 26.38 28.4588 26.12 28.6748 25.928C28.8988 25.736 29.1868 25.64 29.5388 25.64C29.8268 25.64 30.0708 25.7 30.2708 25.82L30.1028 26.252C30.0308 26.212 29.9468 26.18 29.8508 26.156C29.7548 26.124 29.6508 26.108 29.5388 26.108C29.3468 26.108 29.1828 26.168 29.0468 26.288C28.9108 26.4 28.8428 26.564 28.8428 26.78C28.8428 26.924 28.8788 27.048 28.9508 27.152C29.0308 27.256 29.1268 27.332 29.2388 27.38L29.3948 27.356C29.4908 27.34 29.6108 27.324 29.7548 27.308C29.8988 27.284 30.0348 27.264 30.1628 27.248C30.2988 27.232 30.3948 27.228 30.4508 27.236V27.704C30.2988 27.72 30.1348 27.74 29.9588 27.764C29.7908 27.78 29.6108 27.8 29.4188 27.824C29.2348 27.84 29.0388 27.864 28.8308 27.896C28.6308 27.928 28.4228 27.964 28.2068 28.004V27.548ZM33.6944 35V35.408C33.6944 35.928 33.6184 36.372 33.4664 36.74C33.3224 37.116 33.1024 37.4 32.8064 37.592C32.5184 37.784 32.1624 37.88 31.7384 37.88C31.5464 37.88 31.3584 37.852 31.1744 37.796C30.9904 37.748 30.8024 37.676 30.6104 37.58L30.8744 36.956C31.0264 37.028 31.1664 37.08 31.2944 37.112C31.4304 37.144 31.5744 37.16 31.7264 37.16C32.1184 37.16 32.4144 37.008 32.6144 36.704C32.8224 36.4 32.9264 35.988 32.9264 35.468V29.216H33.6944V34.28H35.1464C35.1864 34.28 35.2064 34.296 35.2064 34.328V34.94C35.2064 34.98 35.1864 35 35.1464 35H33.6944ZM35.0259 35C34.9859 35 34.9659 34.98 34.9659 34.94V34.328C34.9659 34.296 34.9859 34.28 35.0259 34.28H36.6939V25.88H37.5099V35H35.0259ZM39.9302 25.88H40.7462V35H39.9302V25.88Z" fill="#F96161"/>
</svg>
