<svg width="56" height="45" viewBox="0 0 56 45" fill="none" xmlns="http://www.w3.org/2000/svg">
<path fill-rule="evenodd" clip-rule="evenodd" d="M6.28372 0.9087C5.60981 0.90982 4.93709 1.01959 4.30712 1.21184C2.62722 1.72452 1.09487 2.85362 0.728446 4.56289C0.41181 6.03986 0.531617 7.70975 1.67454 8.95284C2.81746 10.1959 4.7753 10.8616 7.74575 10.8616C7.86943 10.8634 7.99222 10.8405 8.10699 10.7944C8.22176 10.7483 8.32622 10.6798 8.4143 10.593C8.50238 10.5061 8.57232 10.4026 8.62006 10.2885C8.6678 10.1744 8.69238 10.052 8.69238 9.92827C8.69238 9.80458 8.6678 9.68213 8.62006 9.56802C8.57232 9.45392 8.50238 9.35043 8.4143 9.26359C8.32622 9.17675 8.22176 9.10828 8.10699 9.06216C7.99222 9.01604 7.86943 8.99319 7.74575 8.99494C5.05704 8.99494 3.68303 8.3794 3.04868 7.68944C2.41431 6.99948 2.31133 6.08451 2.55365 4.95419C2.71505 4.20126 3.62686 3.37109 4.85198 2.9972C5.97763 2.65367 7.23455 2.72185 8.10756 3.2564C11.8405 14.9463 13.0458 27.4404 11.6036 39.6271C11.5905 39.7384 11.5974 39.8511 11.6242 39.96C12.1565 42.1215 13.953 43.5423 15.9567 43.9618C16.0961 44.0371 16.2524 44.0756 16.4109 44.0737H16.742C17.046 44.097 17.3515 44.0973 17.6552 44.0737H43.7109C43.7798 44.0737 43.8486 44.0661 43.9158 44.0509C45.9239 43.599 47.65 42.2114 48.5228 40.3473C49.0976 39.1196 49.2879 37.7322 49.0648 36.3952C49.0284 36.1773 48.916 35.9793 48.7474 35.8366C48.5789 35.6938 48.3651 35.6154 48.1442 35.6154H43.6331V25.7182C43.6349 25.5933 43.6116 25.4694 43.5646 25.3537C43.5176 25.238 43.4479 25.1329 43.3595 25.0447C43.2712 24.9564 43.166 24.8868 43.0503 24.8399C42.9345 24.793 42.8106 24.7698 42.6857 24.7717C42.4383 24.7754 42.2026 24.8772 42.0302 25.0547C41.8578 25.2322 41.763 25.4708 41.7665 25.7182V35.6154H21.9345C21.7995 35.5912 21.6607 35.5971 21.5283 35.6327C21.3958 35.6682 21.2727 35.7325 21.1679 35.821C21.0631 35.9095 20.9791 36.02 20.9218 36.1447C20.8646 36.2693 20.8355 36.4051 20.8367 36.5423C20.8319 37.4964 20.8962 38.4208 20.7956 39.1895C20.6949 39.9582 20.4812 40.5253 19.9106 41.0177C19.8801 41.044 19.8513 41.0723 19.8244 41.1024C18.0425 43.0961 14.2355 42.1969 13.4784 39.6573C14.8954 27.4543 13.7203 14.9665 10.0616 3.2404H35.3109C35.329 3.24041 35.3471 3.23988 35.3652 3.23883C36.1384 3.19374 36.9446 3.4177 37.5838 3.85509C37.8544 4.04028 38.072 4.25476 38.2089 4.47693C38.3389 4.68805 38.4365 5.00003 38.5217 5.38608L39.844 11.375C39.8689 11.4961 39.9176 11.6112 39.9874 11.7133C40.0572 11.8155 40.1466 11.9028 40.2504 11.9701C40.3542 12.0374 40.4703 12.0834 40.5921 12.1054C40.7138 12.1275 40.8387 12.1251 40.9595 12.0984C41.0803 12.0717 41.1946 12.0213 41.2957 11.9501C41.3969 11.8788 41.4829 11.7882 41.5487 11.6834C41.6145 11.5787 41.6588 11.4619 41.6791 11.3398C41.6993 11.2178 41.6952 11.0929 41.6667 10.9725L40.3445 4.98365C40.2459 4.53707 40.1153 4.01269 39.7982 3.49785C39.4878 2.99404 39.0711 2.61097 38.638 2.31461C37.7109 1.68015 36.6016 1.34845 35.4808 1.36693C35.4202 1.36793 35.3595 1.37068 35.2988 1.37374H8.78868C8.72121 1.373 8.65387 1.37957 8.58782 1.39335C7.86256 1.05516 7.07238 0.907396 6.28372 0.9087ZM53.0317 2.61838C52.8394 2.62095 52.6525 2.6829 52.4967 2.79575C52.3409 2.9086 52.2237 3.06684 52.1613 3.24881C51.0543 6.47752 48.2626 8.85828 44.9176 11.0932C41.5757 13.326 37.7389 15.3705 34.7823 18.1065C34.7846 18.1044 34.787 18.1023 34.7893 18.1002L34.7738 18.1142C34.7766 18.1116 34.7795 18.1091 34.7823 18.1065C33.6039 19.1526 32.9711 20.3581 32.8124 21.5727C32.6825 22.5673 32.8476 23.5332 33.142 24.4588L28.8063 28.0312C28.7097 28.1085 28.6294 28.2042 28.5701 28.3128C28.5108 28.4214 28.4737 28.5406 28.4609 28.6637C28.4481 28.7868 28.4599 28.9111 28.4957 29.0296C28.5314 29.148 28.5903 29.2582 28.669 29.3537C28.7476 29.4492 28.8445 29.528 28.9539 29.5858C29.0634 29.6435 29.1832 29.6789 29.3064 29.6898C29.4296 29.7008 29.5538 29.6872 29.6717 29.6498C29.7896 29.6124 29.899 29.5519 29.9933 29.4718L34.3334 25.8958C35.6322 26.5456 37.1878 26.5514 38.7541 26.1746C40.5942 25.732 42.5291 24.7683 44.4236 23.5128C48.2126 21.0019 51.828 17.3328 53.7455 13.9894C54.6409 12.4282 55.2864 10.5232 55.4047 8.57139C55.523 6.61956 55.0951 4.58997 53.7676 2.96174C53.6787 2.85278 53.5664 2.7653 53.439 2.70585C53.3115 2.64639 53.1723 2.61649 53.0317 2.61838ZM53.1596 5.60585C53.4902 6.48298 53.6024 7.45244 53.5414 8.45844C53.4439 10.0669 52.8849 11.7379 52.1262 13.0607C50.4265 16.0242 46.9311 19.6118 43.3924 21.9568C41.6231 23.1294 39.84 23.9935 38.3174 24.3597C37.4384 24.5712 36.6734 24.6183 36.0237 24.5031L52.0821 11.2718C52.2352 11.1493 52.3458 10.9817 52.3982 10.7928C52.4507 10.6039 52.4423 10.4032 52.3743 10.2193C52.3063 10.0354 52.1821 9.87763 52.0193 9.76829C51.8566 9.65896 51.6635 9.60365 51.4676 9.61021C51.2573 9.61725 51.0556 9.69512 50.8951 9.8312L34.7299 23.1505C34.6361 22.6783 34.6087 22.2325 34.6633 21.8145C34.7644 21.0408 35.1102 20.3094 36.0269 19.4977C36.0321 19.493 36.0372 19.4884 36.0424 19.4836C38.7427 16.9822 42.504 14.9507 45.9546 12.6453C48.8566 10.7064 51.5792 8.543 53.1596 5.60585ZM16.9303 10.0949C16.8066 10.0931 16.6838 10.116 16.569 10.1621C16.4543 10.2082 16.3498 10.2767 16.2617 10.3635C16.1736 10.4504 16.1037 10.5539 16.056 10.668C16.0082 10.7821 15.9836 10.9045 15.9836 11.0282C15.9836 11.1519 16.0082 11.2744 16.056 11.3885C16.1037 11.5026 16.1736 11.6061 16.2617 11.6929C16.3498 11.7797 16.4543 11.8482 16.569 11.8943C16.6838 11.9405 16.8066 11.9633 16.9303 11.9616H34.1994C34.3231 11.9633 34.4458 11.9405 34.5606 11.8943C34.6754 11.8482 34.7798 11.7797 34.8679 11.6929C34.956 11.6061 35.0259 11.5026 35.0737 11.3885C35.1214 11.2744 35.146 11.1519 35.146 11.0282C35.146 10.9045 35.1214 10.7821 35.0737 10.668C35.0259 10.5539 34.956 10.4504 34.8679 10.3635C34.7798 10.2767 34.6754 10.2082 34.5606 10.1621C34.4458 10.116 34.3231 10.0931 34.1994 10.0949H16.9303ZM16.9303 15.7046C16.8066 15.7029 16.6838 15.7257 16.569 15.7718C16.4543 15.8179 16.3498 15.8864 16.2617 15.9733C16.1736 16.0601 16.1037 16.1636 16.056 16.2777C16.0082 16.3918 15.9836 16.5143 15.9836 16.6379C15.9836 16.7616 16.0082 16.8841 16.056 16.9982C16.1037 17.1123 16.1736 17.2158 16.2617 17.3026C16.3498 17.3895 16.4543 17.4579 16.569 17.5041C16.6838 17.5502 16.8066 17.573 16.9303 17.5713H34.1994C34.3231 17.573 34.4458 17.5502 34.5606 17.5041C34.6754 17.4579 34.7798 17.3895 34.8679 17.3026C34.956 17.2158 35.0259 17.1123 35.0737 16.9982C35.1214 16.8841 35.146 16.7616 35.146 16.6379C35.146 16.5143 35.1214 16.3918 35.0737 16.2777C35.0259 16.1636 34.956 16.0601 34.8679 15.9733C34.7798 15.8864 34.6754 15.8179 34.5606 15.7718C34.4458 15.7257 34.3231 15.7029 34.1994 15.7046H16.9303ZM16.9303 21.5343C16.8066 21.5325 16.6838 21.5554 16.569 21.6015C16.4543 21.6476 16.3498 21.7161 16.2617 21.8029C16.1736 21.8898 16.1037 21.9933 16.056 22.1074C16.0082 22.2215 15.9836 22.3439 15.9836 22.4676C15.9836 22.5913 16.0082 22.7138 16.056 22.8279C16.1037 22.942 16.1736 23.0455 16.2617 23.1323C16.3498 23.2192 16.4543 23.2876 16.569 23.3337C16.6838 23.3799 16.8066 23.4027 16.9303 23.401H29.5796C29.7033 23.4027 29.8261 23.3799 29.9409 23.3337C30.0556 23.2876 30.1601 23.2192 30.2482 23.1323C30.3363 23.0455 30.4062 22.942 30.4539 22.8279C30.5017 22.7138 30.5263 22.5913 30.5263 22.4676C30.5263 22.3439 30.5017 22.2215 30.4539 22.1074C30.4062 21.9933 30.3363 21.8898 30.2482 21.8029C30.1601 21.7161 30.0556 21.6476 29.9409 21.6015C29.8261 21.5554 29.7033 21.5325 29.5796 21.5343H16.9303ZM16.9303 27.144C16.8066 27.1423 16.6838 27.1651 16.569 27.2112C16.4543 27.2574 16.3498 27.3258 16.2617 27.4127C16.1736 27.4995 16.1037 27.603 16.056 27.7171C16.0082 27.8312 15.9836 27.9537 15.9836 28.0774C15.9836 28.201 16.0082 28.3235 16.056 28.4376C16.1037 28.5517 16.1736 28.6552 16.2617 28.742C16.3498 28.8289 16.4543 28.8974 16.569 28.9435C16.6838 28.9896 16.8066 29.0124 16.9303 29.0107H26.6098C26.7335 29.0124 26.8563 28.9896 26.971 28.9435C27.0858 28.8974 27.1903 28.8289 27.2783 28.742C27.3664 28.6552 27.4364 28.5517 27.4841 28.4376C27.5318 28.3235 27.5564 28.201 27.5564 28.0774C27.5564 27.9537 27.5318 27.8312 27.4841 27.7171C27.4364 27.603 27.3664 27.4995 27.2783 27.4127C27.1903 27.3258 27.0858 27.2574 26.971 27.2112C26.8563 27.1651 26.7335 27.1423 26.6098 27.144H16.9303ZM22.7176 37.4821H47.2872C47.2878 38.1956 47.133 38.9136 46.8323 39.5558C46.2282 40.846 44.9787 41.8651 43.5943 42.2071H21.3679C22.1708 41.3973 22.5224 40.3794 22.6464 39.4319C22.7351 38.7544 22.7303 38.0946 22.7176 37.4821Z" fill="#F96161"/>
<path fill-rule="evenodd" clip-rule="evenodd" d="M53.1599 5.60596C51.5795 8.54312 48.8569 10.7065 45.9549 12.6454C42.5043 14.9508 38.743 16.9823 36.0426 19.4838C36.0375 19.4885 36.0324 19.4932 36.0272 19.4978C35.1105 20.3095 34.7647 21.0409 34.6636 21.8146C34.609 22.2326 34.6364 22.6784 34.7302 23.1506L50.8954 9.83131C51.0559 9.69523 51.2576 9.61736 51.4679 9.61032C51.6639 9.60376 51.8569 9.65907 52.0197 9.76841C52.1824 9.87774 52.3066 10.0355 52.3746 10.2194C52.4426 10.4033 52.451 10.604 52.3986 10.7929C52.3461 10.9818 52.2355 11.1494 52.0825 11.2719L36.0241 24.5032C36.6737 24.6185 37.4387 24.5713 38.3178 24.3599C39.8404 23.9936 41.6234 23.1295 43.3927 21.9569C46.9314 19.6119 50.4268 16.0244 52.1266 13.0608C52.8853 11.738 53.4443 10.067 53.5418 8.45855C53.6027 7.45255 53.4906 6.48309 53.1599 5.60596H53.1599Z" fill="#F96161"/>
</svg>
