<svg width="24" height="24" viewBox="0 0 24 24" fill="none" xmlns="http://www.w3.org/2000/svg">
<path d="M15.4998 7.0636L20.8398 12.4C21.2142 12.79 21.4998 13.0744 21.4998 13.6C21.4998 14.2756 20.9814 14.8 20.2998 14.8H19.0998V22C19.0998 22.66 18.5598 23.2 17.8998 23.2H14.8998C14.2371 23.2 14.2998 22.6627 14.2998 22V17.2C14.2998 16.54 13.7598 16 13.0998 16H10.6998C10.0398 16 9.4998 16.54 9.4998 17.2V22C9.4998 22.6627 8.96255 23.2 8.2998 23.2H5.8998C5.2398 23.2 4.6998 22.66 4.6998 22V14.8H3.4998C2.8182 14.8 2.2998 14.2756 2.2998 13.6C2.2998 13.0744 2.5854 12.79 2.9598 12.4L10.6998 4.666C11.0274 4.3564 11.3274 4 11.8998 4C12.4722 4 12.7722 4.3564 13.0998 4.666L15.4998 7.0636Z" stroke="#888888" stroke-width="1.5" stroke-linejoin="round"/>
</svg>
