<svg width="24" height="15" viewBox="0 0 24 15" fill="none" xmlns="http://www.w3.org/2000/svg">
<path d="M19.9128 13.5772L6.91613 13.5772C5.32395 13.5772 3.79698 12.9447 2.67113 11.8189C1.54529 10.693 0.912795 9.16605 0.912795 7.57387C0.912795 5.98168 1.54529 4.45471 2.67113 3.32887C3.79698 2.20302 5.32395 1.57053 6.91613 1.57053L19.9128 1.57053C20.9742 1.57053 21.9922 1.99219 22.7428 2.74276C23.4933 3.49332 23.915 4.5113 23.915 5.57276C23.915 6.63421 23.4933 7.65219 22.7428 8.40276C21.9922 9.15332 20.9742 9.57498 19.9128 9.57498L6.90906 9.56791C6.37833 9.56791 5.86934 9.35708 5.49406 8.9818C5.11878 8.60652 4.90795 8.09753 4.90795 7.5668C4.90795 7.03607 5.11878 6.52708 5.49406 6.1518C5.86934 5.77652 6.37833 5.56569 6.90906 5.56569L18.9087 5.57276" stroke="#2A2A2A" stroke-width="1.8" stroke-linecap="round" stroke-linejoin="round"/>
</svg>
