<svg width="56" height="57" viewBox="0 0 56 57" fill="none" xmlns="http://www.w3.org/2000/svg">
<path d="M47.6851 36.1599L42.552 31.0268C45.4464 27.8437 47.0041 23.6684 46.902 19.3673C46.7998 15.0662 45.0457 10.9696 42.0035 7.92742C38.9613 4.88525 34.8647 3.1311 30.5636 3.02897C26.2626 2.92684 22.0873 4.48456 18.9041 7.37891L15.664 4.13882L13.771 2.2458C13.6136 2.08842 13.4002 2 13.1776 2C12.955 2 12.7416 2.08842 12.5842 2.2458C12.4268 2.40319 12.3384 2.61665 12.3384 2.83923C12.3384 3.0618 12.4268 3.27526 12.5842 3.43265L13.9016 4.75005C11.0129 7.86626 9.08229 11.7481 8.3402 15.9319C7.5981 20.1157 8.07592 24.4247 9.71659 28.3443C11.3573 32.2639 14.0914 35.6284 17.5926 38.0361C21.0938 40.4437 25.214 41.7927 29.4611 41.9221V48.5981C22.0315 48.7523 14.4416 50.77 14.4416 54.4255V55.28H46.1541V54.4255C46.1541 50.77 38.5642 48.7345 31.1346 48.5921V41.9102C36.3753 41.6908 41.3643 39.6026 45.1987 36.0234L46.5102 37.3349C46.5881 37.4128 46.6806 37.4746 46.7824 37.5168C46.8842 37.559 46.9934 37.5807 47.1036 37.5807C47.2138 37.5807 47.3229 37.559 47.4247 37.5168C47.5266 37.4746 47.6191 37.4128 47.697 37.3349C47.7749 37.257 47.8368 37.1644 47.8789 37.0626C47.9211 36.9608 47.9428 36.8517 47.9428 36.7415C47.9428 36.6313 47.9211 36.5221 47.8789 36.4203C47.8368 36.3185 47.7749 36.226 47.697 36.148L47.6851 36.1599ZM15.0469 19.7933C15.0387 17.0779 15.769 14.4113 17.1595 12.0788C17.4028 14.3932 18.5837 17.2238 20.536 20.1138L15.8836 24.7662C15.3358 23.1659 15.061 21.4848 15.0706 19.7933H15.0469ZM21.5745 8.45301C23.6634 8.45301 26.4287 9.56271 29.2534 11.4201L21.7704 18.9151C20.869 17.5779 20.1187 16.1449 19.5332 14.6424C18.5837 12.1144 18.5659 10.0552 19.4857 9.13544C19.7727 8.88942 20.1056 8.70249 20.465 8.58539C20.8245 8.46828 21.2036 8.42329 21.5805 8.45301H21.5745ZM40.8014 30.4512C40.5136 30.698 40.1798 30.8853 39.8193 31.0024C39.4587 31.1196 39.0786 31.1641 38.7007 31.1336C36.6119 31.1336 33.8465 30.0239 31.0218 28.1665L38.5108 20.6775C41.3949 25.0629 42.2375 29.0151 40.8014 30.4512ZM29.6391 27.1874C28.3311 26.2142 27.0955 25.1472 25.9421 23.9948C24.789 22.8425 23.72 21.609 22.7436 20.3037L30.648 12.3993C33.2662 14.3498 35.5871 16.6706 37.5376 19.2889L29.6391 27.1874ZM21.5449 21.4964C22.5317 22.7948 23.6063 24.0241 24.7612 25.1757C25.9128 26.3305 27.1421 27.4051 28.4404 28.392L23.4972 33.3234C20.5044 31.8485 18.0825 29.4265 16.6076 26.4337L21.5449 21.4964ZM29.8172 29.3712C32.7071 31.3235 35.5437 32.5104 37.8521 32.7537C35.9568 33.8777 33.839 34.5742 31.6465 34.7946C29.454 35.015 27.2399 34.7539 25.1588 34.0295L29.8172 29.3712ZM43.098 27.4959C42.8547 25.1816 41.6738 22.3569 39.7214 19.4669L44.3679 14.8204C45.09 16.8986 45.3505 19.1092 45.1312 21.2983C44.9118 23.4874 44.218 25.6023 43.098 27.4959ZM43.6914 13.1588L38.7541 18.0961C36.7723 15.4956 34.4489 13.1742 31.8467 11.1946L36.784 6.25734C39.7796 7.72819 42.2027 10.1513 43.6736 13.147L43.6914 13.1588ZM35.1224 5.56304L30.4699 10.2155C27.58 8.26311 24.7434 7.07627 22.435 6.83296C24.3303 5.70894 26.4482 5.0124 28.6406 4.79203C30.8331 4.57165 33.0472 4.83276 35.1283 5.5571L35.1224 5.56304ZM44.1127 53.5947H16.483C17.836 51.9984 22.8504 50.2537 30.2978 50.2537C37.7453 50.2537 42.7597 51.9984 44.1127 53.5947ZM30.1436 40.2664C26.1666 40.2654 22.276 39.1061 18.9472 36.9301C15.6183 34.7541 12.9953 31.6557 11.3985 28.0134C9.80172 24.3711 9.30035 20.3426 9.95562 16.42C10.6109 12.4974 12.3945 8.85056 15.0884 5.92503L17.7291 8.56576C14.8484 11.7512 13.3021 15.9219 13.4101 20.2154C13.5181 24.5089 15.2722 28.5967 18.3095 31.6332C21.3468 34.6697 25.4349 36.4228 29.7285 36.5297C34.022 36.6366 38.1924 35.0893 41.3771 32.2077L44.0178 34.8485C40.2452 38.345 35.2873 40.2811 30.1436 40.2664Z" fill="#F96161"/>
</svg>
