<svg width="56" height="57" viewBox="0 0 56 57" fill="none" xmlns="http://www.w3.org/2000/svg">
<g clip-path="url(#clip0_601_38967)">
<path d="M55.7952 23.8607L55.7716 23.8065L55.7847 23.796L55.6115 23.4652L46.319 5.77186C46.0652 5.30986 45.1824 3.95361 43.484 3.95361H12.3541C10.4589 3.95361 9.51036 5.82086 9.48936 5.86461L0.363115 23.2412L0.359615 23.2491L0.294865 23.3716C0.14174 23.6744 -0.19776 24.4969 0.139115 25.3089C2.45786 29.0731 6.59136 31.5984 11.3365 31.5984C15.9757 31.5984 20.0226 29.179 22.3676 25.5539C22.7264 24.7305 22.2267 23.6989 22.2267 23.6989L13.5922 7.25586L13.5082 7.09661C13.3919 6.82886 13.2886 6.31874 14.2144 6.31874H25.5351C25.8562 6.32924 26.7514 6.48849 26.7514 7.98736V46.9406C26.7304 47.3265 26.5842 48.1079 25.7819 48.6031L20.1145 52.1084C20.1145 52.1084 18.6279 53.0464 20.1145 53.0464H36.1961C37.2925 53.0464 36.1961 52.286 36.1961 52.286L30.3581 48.7125C30.3555 48.7107 30.3555 48.709 30.3529 48.7072C29.393 48.1192 29.2136 47.379 29.1874 47.0054V7.82111C29.1874 6.46661 30.1586 6.32661 30.4999 6.31874H41.5695C41.8591 6.32399 42.742 6.42024 42.1864 7.48336L33.5177 23.9841C33.5177 23.9841 33.2465 24.6334 33.5519 25.3456C35.8732 29.0889 39.991 31.5984 44.7212 31.5984C49.4594 31.5984 53.592 29.0836 55.9107 25.3281C56.1426 24.7226 55.8819 24.0506 55.7952 23.8607ZM19.4232 23.341L19.4241 23.3419L19.5431 23.5702C19.7269 23.95 20.0042 24.6727 19.4241 24.6727L2.96711 24.671C2.42111 24.671 2.52961 24.1714 2.70374 23.768L2.96449 23.2727L2.96711 23.2684L10.8124 8.33036C10.8124 8.33036 11.2131 7.71086 11.5386 8.33036L19.4232 23.341ZM36.3807 23.5221L36.4971 23.3007C36.4971 23.2999 36.5015 23.292 36.5015 23.292L44.1717 8.68736C44.1822 8.67161 44.7029 7.68111 45.2331 8.68999L52.8806 23.2491C53.039 23.5624 53.5229 24.6745 52.388 24.6745L37.1149 24.6719C37.1122 24.6719 37.1122 24.6719 37.1122 24.6719C35.9992 24.671 36.2005 23.9132 36.3807 23.5221Z" fill="#F96161"/>
</g>
<defs>
<clipPath id="clip0_601_38967">
<rect width="56" height="56" fill="white" transform="translate(0 0.5)"/>
</clipPath>
</defs>
</svg>
