<svg width="20" height="20" viewBox="0 0 20 20" fill="none" xmlns="http://www.w3.org/2000/svg">
<path d="M17.8571 0H2.14286C0.959821 0 0 0.959821 0 2.14286V17.8571C0 19.0402 0.959821 20 2.14286 20H17.8571C19.0402 20 20 19.0402 20 17.8571V2.14286C20 0.959821 19.0402 0 17.8571 0ZM17.5893 17.8571H2.41071C2.26339 17.8571 2.14286 17.7366 2.14286 17.5893V2.41071C2.14286 2.26339 2.26339 2.14286 2.41071 2.14286H17.5893C17.7366 2.14286 17.8571 2.26339 17.8571 2.41071V17.5893C17.8571 17.7366 17.7366 17.8571 17.5893 17.8571Z" fill="#F96161"/>
</svg>
