<svg width="56" height="45" viewBox="0 0 56 45" fill="none" xmlns="http://www.w3.org/2000/svg">
<path d="M1.75 36.25V43.25H54.25V36.25" stroke="#F96161" stroke-width="2" stroke-miterlimit="10" stroke-linejoin="round"/>
<path d="M28 43.25V39.75C28 37.8162 26.4338 36.25 24.5 36.25H1.75V1.25H24.5C26.4338 1.25 28 2.81625 28 4.75V43.25Z" stroke="#F96161" stroke-width="2" stroke-miterlimit="10" stroke-linejoin="round"/>
<path d="M7 15.25H22.75" stroke="#F96161" stroke-width="2" stroke-miterlimit="10" stroke-linejoin="round"/>
<path d="M7 8.25H22.75" stroke="#F96161" stroke-width="2" stroke-miterlimit="10" stroke-linejoin="round"/>
<path d="M7 22.25H22.75" stroke="#F96161" stroke-width="2" stroke-miterlimit="10" stroke-linejoin="round"/>
<path d="M7 29.25H22.75" stroke="#F96161" stroke-width="2" stroke-miterlimit="10" stroke-linejoin="round"/>
<path d="M28 43.25V39.75C28 37.8162 29.5662 36.25 31.5 36.25H54.25V1.25H31.5C29.5662 1.25 28 2.81625 28 4.75V43.25Z" stroke="#F96161" stroke-width="2" stroke-miterlimit="10" stroke-linejoin="round"/>
<path d="M49 15.25H33.25" stroke="#F96161" stroke-width="2" stroke-miterlimit="10" stroke-linejoin="round"/>
<path d="M49 8.25H33.25" stroke="#F96161" stroke-width="2" stroke-miterlimit="10" stroke-linejoin="round"/>
<path d="M49 22.25H33.25" stroke="#F96161" stroke-width="2" stroke-miterlimit="10" stroke-linejoin="round"/>
<path d="M49 29.25H33.25" stroke="#F96161" stroke-width="2" stroke-miterlimit="10" stroke-linejoin="round"/>
</svg>
