<svg width="75" height="55" viewBox="0 0 75 55" fill="none" xmlns="http://www.w3.org/2000/svg">
<mask id="mask0_601_38721" style="mask-type:luminance" maskUnits="userSpaceOnUse" x="4" y="33" width="69" height="5">
<path d="M4.4082 33.9072H72.6435V33.9477H4.4082V33.9072ZM29.1509 33.9477H60.8733V37.6719H29.1509V33.9477ZM71.2262 33.9477H72.6435V37.6719H71.2262V33.9477ZM4.4082 33.9477H18.3292V37.6719H4.4082V33.9477Z" fill="white"/>
</mask>
<g mask="url(#mask0_601_38721)">
<path d="M4.66016 34.124H72.3807V37.3005H4.66016V34.124Z" fill="white"/>
</g>
<path d="M7.53251 16.0822C8.6281 15.7109 8.99943 14.9609 8.99943 14.1006V10.79L8.36707 11.3378C8.1134 11.5988 7.97185 11.9113 7.97185 12.2569V14.244C7.97185 15.1631 7.24575 15.4499 7.24575 14.244V12.29L6.64832 12.8047C6.35237 13.0657 6.21082 13.3764 6.21082 13.7219V14.8433C6.21082 15.7955 5.51965 16.0822 5.51965 14.8433V13.7219L5.00494 14.2697C4.777 14.4977 4.65935 14.7918 4.65935 15.1043V15.6778C4.65935 16.5455 5.26597 16.8561 5.95715 16.6282L7.53251 16.0822ZM7.85237 32.3598V25.8653H4.11156C3.2531 25.8653 2.64648 26.4628 2.64648 27.3304V30.8947C2.64648 31.7532 3.2531 32.3598 4.11156 32.3598H7.85237ZM17.3138 20.4811V25.8304H16.7402V18.4168L12.8303 21.9205V25.8304H12.334V19.562L8.42406 23.1006V25.8304H7.30457C6.44428 25.8304 5.83766 26.437 5.83766 27.2973V30.8947C5.83766 31.7532 6.44428 32.3598 7.30457 32.3598H18.2899C19.9847 32.3598 21.2219 31.1227 21.2219 29.4278V16.9756L17.3138 20.4811ZM20.334 46.0822V47.4297L26.0803 42.9719V41.6245L20.334 46.0822ZM25.7053 18.7863L21.7972 21.6594V36.0418C21.7972 37.3065 21.7972 38.3433 21.5105 39.2605C23.2035 39.2605 25.7053 37.7366 25.7053 33.9444V18.7863ZM28.902 32.3598V25.8653H25.1612C24.3009 25.8653 23.6943 26.4628 23.6943 27.3304V30.8947C23.6943 31.7532 24.3009 32.3598 25.1612 32.3598H28.902ZM32.0932 32.3598V25.8653H28.3524C27.4921 25.8653 26.8855 26.4628 26.8855 27.3304V30.8947C26.8855 31.7532 27.4921 32.3598 28.3524 32.3598H32.0932ZM35.2844 32.3598V25.8653H31.5435C30.6851 25.8653 30.0785 26.4628 30.0785 27.3304V30.8947C30.0785 31.7532 30.6851 32.3598 31.5435 32.3598H35.2844ZM44.6042 7.37268C44.6042 8.63554 45.7844 9.2679 46.845 8.60246L47.2163 8.37452C47.5362 8.20724 47.7053 7.88738 47.7053 7.51606V5.72929C47.7053 4.60981 46.6171 4.03628 45.5822 4.60981L45.1171 4.87084C44.8064 5.03812 44.6042 5.38371 44.6042 5.75503V7.37268ZM46.0105 7.25503C45.7494 7.39841 45.4627 7.25503 45.4627 6.93518V6.42047C45.4627 6.33591 45.5215 6.244 45.5822 6.19253L46.2715 5.78812C46.5252 5.64474 46.8193 5.78812 46.8193 6.10062V6.62268C46.8193 6.70724 46.7605 6.79179 46.7016 6.85062L46.0105 7.25503ZM46.152 11.6852C44.459 11.6852 43.22 12.9223 43.22 14.6172V18.7863H40.4572C37.9296 18.7863 35.856 20.3708 35.856 22.3249V25.8653H34.7366C33.902 25.8653 33.2696 26.4958 33.2696 27.3304V30.8947C33.2696 31.7532 33.8763 32.3598 34.7366 32.3598H43.1943C44.4259 32.3598 44.4847 31.1815 44.4847 31.1815H44.6281C44.6281 31.1815 44.72 32.3598 45.9241 32.3598H58.0913V16.2844C58.0913 13.7569 56.0436 11.6852 53.4902 11.6852H46.152ZM53.6005 18.7863H45.8413V18.2146H54.1814V25.8653H53.6005V18.7863ZM37.8119 25.8653V25.2826H43.22V25.8653H37.8119ZM50.9884 25.8653H45.8413V25.2826H50.9884V25.8653ZM62.0288 39.1797V40.5271L67.7752 36.0712V34.7219L62.0288 39.1797ZM67.7163 13.9517C66.9406 13.2091 65.6777 13.2091 64.902 13.9517C64.152 14.7348 64.152 15.9977 64.902 16.7734C65.6777 17.5234 66.9406 17.5234 67.7163 16.7734C68.4663 15.9977 68.4663 14.7348 67.7163 13.9517ZM69.1575 32.3598C70.8597 32.3598 72.0895 31.1227 72.0895 29.4278V18.7863H61.9369C60.1244 18.7863 58.6594 20.1686 58.6594 21.8617V25.8653H57.538C56.6796 25.8653 56.073 26.4628 56.073 27.3304V30.8947C56.073 31.7532 56.6796 32.3598 57.538 32.3598H69.1575ZM61.5068 25.8653V25.2826H68.4406V25.8653H61.5068Z" stroke="white" stroke-width="7.33355"/>
<mask id="mask1_601_38721" style="mask-type:luminance" maskUnits="userSpaceOnUse" x="4" y="33" width="69" height="5">
<path d="M4.4082 33.9072H72.6435V33.9477H4.4082V33.9072ZM29.1509 33.9477H60.8733V37.6719H29.1509V33.9477ZM71.2262 33.9477H72.6435V37.6719H71.2262V33.9477ZM4.4082 33.9477H18.3292V37.6719H4.4082V33.9477Z" fill="white"/>
</mask>
<g mask="url(#mask1_601_38721)">
<path d="M4.66016 34.124H72.3807V37.3005H4.66016V34.124Z" fill="#F96161"/>
</g>
<path d="M7.53516 16.0833C8.62891 15.7083 9.00207 14.9601 9.00207 14.098V10.791L8.36971 11.337C8.11052 11.5962 7.96714 11.9123 7.96714 12.2579V14.2414C7.96714 15.1623 7.24839 15.4491 7.24839 14.2414V12.2855L6.64361 12.8039C6.35685 13.0631 6.21163 13.3793 6.21163 13.7248V14.8462C6.21163 15.7947 5.52229 16.0833 5.52229 14.8462V13.7248L5.00391 14.2708C4.77413 14.5006 4.66016 14.7892 4.66016 15.1054V15.6807C4.66016 16.5429 5.2631 16.859 5.95427 16.6293L7.53516 16.0833Z" fill="#F96161"/>
<path d="M7.85237 32.3604V25.8604H4.1134C3.24943 25.8604 2.64648 26.4651 2.64648 27.3273V30.8934C2.64648 31.7556 3.24943 32.3604 4.1134 32.3604H7.85237Z" fill="#F96161"/>
<path d="M17.3122 20.4833V25.8326H16.7368V18.4116L12.8269 21.9208V25.8326H12.3379V19.5624L8.42613 23.0991V25.8326H7.3048C6.44083 25.8326 5.83789 26.4355 5.83789 27.2995V30.8932C5.83789 31.7554 6.44083 32.3602 7.3048 32.3602H18.2901C19.9868 32.3602 21.2239 31.123 21.2239 29.4263V16.9741L17.3122 20.4833Z" fill="#F96161"/>
<path d="M20.332 46.0788V47.4299L26.082 42.9722V41.6211L20.332 46.0788Z" fill="#F96161"/>
<path d="M25.7083 18.7866L21.7965 21.6616V36.0421C21.7965 37.3068 21.7965 38.3418 21.5098 39.2627C23.2065 39.2627 25.7083 37.7388 25.7083 33.941V18.7866Z" fill="#F96161"/>
<path d="M28.9012 32.3604V25.8604H25.1622C24.2983 25.8604 23.6953 26.4651 23.6953 27.3273V30.8934C23.6953 31.7556 24.2983 32.3604 25.1622 32.3604H28.9012Z" fill="#F96161"/>
<path d="M32.0926 32.3604V25.8604H28.3536C27.4897 25.8604 26.8867 26.4651 26.8867 27.3273V30.8934C26.8867 31.7556 27.4897 32.3604 28.3536 32.3604H32.0926Z" fill="#F96161"/>
<path d="M35.284 32.3604V25.8604H31.545C30.6811 25.8604 30.0781 26.4651 30.0781 27.3273V30.8934C30.0781 31.7556 30.6811 32.3604 31.545 32.3604H35.284Z" fill="#F96161"/>
<path d="M44.6016 7.36964C44.6016 8.63435 45.7817 9.2667 46.8442 8.60494L47.2192 8.37516C47.5354 8.20236 47.7082 7.88619 47.7082 7.51302V5.72994C47.7082 4.60861 46.6144 4.03325 45.5795 4.60861L45.1199 4.86597C44.8038 5.03876 44.6016 5.38435 44.6016 5.75751V7.36964ZM46.0115 7.25383C45.7523 7.39722 45.4655 7.25383 45.4655 6.93766V6.41927C45.4655 6.33288 45.5225 6.24648 45.5795 6.1895L46.2707 5.78692C46.528 5.64354 46.8166 5.78692 46.8166 6.1031V6.62148C46.8166 6.70788 46.7597 6.79427 46.7008 6.85126L46.0115 7.25383Z" fill="#F96161"/>
<path d="M46.1557 11.6821C44.459 11.6821 43.2219 12.9193 43.2219 14.616V18.7869H40.4608C37.9296 18.7869 35.8597 20.3678 35.8597 22.3237V25.8604H34.7384C33.9038 25.8604 33.2715 26.4928 33.2715 27.3274V30.8935C33.2715 31.7557 33.8744 32.3604 34.7384 32.3604H43.1924C44.4296 32.3604 44.4866 31.1821 44.4866 31.1821H44.6318C44.6318 31.1821 44.7163 32.3604 45.9259 32.3604H58.0895V16.2851C58.0895 13.7538 56.0491 11.6821 53.4884 11.6821H46.1557ZM53.6042 18.7869H45.8395V18.2115H54.1796V25.8604H53.6042V18.7869ZM37.8156 25.8604V25.2851H43.2219V25.8604H37.8156ZM50.9866 25.8604H45.8395V25.2851H50.9866V25.8604Z" fill="#F96161"/>
<path d="M62.0273 39.1765V40.5276L67.7773 36.0699V34.7188L62.0273 39.1765Z" fill="#F96161"/>
<path d="M67.7193 13.9538C66.9436 13.2075 65.677 13.2075 64.9013 13.9538C64.1531 14.7314 64.1531 15.9961 64.9013 16.7736C65.677 17.52 66.9436 17.52 67.7193 16.7736C68.4675 15.9961 68.4675 14.7314 67.7193 13.9538ZM69.1568 32.36C70.8535 32.36 72.0906 31.1229 72.0906 29.4262V18.7865H61.9381C60.1274 18.7865 58.6605 20.167 58.6605 21.8637V25.86H57.5392C56.6752 25.86 56.0723 26.4648 56.0723 27.3269V30.8931C56.0723 31.7553 56.6752 32.36 57.5392 32.36H69.1568ZM61.5079 25.86V25.2847H68.4381V25.86H61.5079Z" fill="#F96161"/>
</svg>
