<svg width="56" height="57" viewBox="0 0 56 57" fill="none" xmlns="http://www.w3.org/2000/svg">
<path d="M32.947 42.718C32.9953 42.906 33.1048 43.0725 33.2581 43.1915C33.4114 43.3105 33.6 43.3751 33.794 43.3752C33.8678 43.3751 33.9412 43.366 34.0128 43.348C34.1241 43.3194 34.2286 43.2691 34.3205 43.2C34.4123 43.1309 34.4897 43.0445 34.5481 42.9455C34.6065 42.8465 34.6449 42.737 34.661 42.6232C34.6771 42.5094 34.6706 42.3936 34.6419 42.2823C33.9746 39.7029 32.4244 37.439 30.2608 35.8843C30.1677 35.8144 30.0616 35.7638 29.9487 35.7354C29.8358 35.707 29.7184 35.7014 29.6033 35.719C29.4883 35.7366 29.3779 35.7769 29.2786 35.8377C29.1793 35.8984 29.0931 35.9784 29.0251 36.0729C28.9572 36.1674 28.9087 36.2745 28.8826 36.3879C28.8565 36.5013 28.8533 36.6188 28.8732 36.7335C28.8931 36.8482 28.9357 36.9578 28.9985 37.0558C29.0612 37.1538 29.1429 37.2384 29.2388 37.3044C31.0697 38.62 32.3818 40.5355 32.947 42.718Z" fill="#F96161"/>
<path d="M10.5 18H8.75C8.51794 18 8.29538 18.0922 8.13128 18.2563C7.96719 18.4204 7.875 18.6429 7.875 18.875C7.875 19.1071 7.96719 19.3296 8.13128 19.4937C8.29538 19.6578 8.51794 19.75 8.75 19.75H10.5C10.7321 19.75 10.9546 19.6578 11.1187 19.4937C11.2828 19.3296 11.375 19.1071 11.375 18.875C11.375 18.6429 11.2828 18.4204 11.1187 18.2563C10.9546 18.0922 10.7321 18 10.5 18Z" fill="#F96161"/>
<path d="M17.5 19.75H19.25C19.4821 19.75 19.7046 19.6578 19.8687 19.4937C20.0328 19.3296 20.125 19.1071 20.125 18.875C20.125 18.6429 20.0328 18.4204 19.8687 18.2563C19.7046 18.0922 19.4821 18 19.25 18H17.5C17.2679 18 17.0454 18.0922 16.8813 18.2563C16.7172 18.4204 16.625 18.6429 16.625 18.875C16.625 19.1071 16.7172 19.3296 16.8813 19.4937C17.0454 19.6578 17.2679 19.75 17.5 19.75Z" fill="#F96161"/>
<path d="M55.2489 31.7261L52.7744 29.2508C52.274 28.7743 51.6095 28.5086 50.9186 28.5086C50.2276 28.5086 49.5631 28.7743 49.0627 29.2508C48.6767 29.6322 48.4201 30.1252 48.3292 30.6602C48.2383 31.1952 48.3177 31.7452 48.5561 32.2327L45.9687 34.8201C45.5322 34.3815 44.9546 34.1116 44.3382 34.0582C43.7217 34.0049 43.1063 34.1715 42.6009 34.5286C42.0956 34.8857 41.7331 35.4101 41.5775 36.009C41.422 36.6079 41.4835 37.2425 41.7512 37.8004L35.2998 44.25H27.1247C26.5062 44.2488 25.9073 44.4666 25.434 44.8647C24.9607 45.2628 24.6435 45.8156 24.5387 46.4251C24.4339 47.0346 24.5482 47.6616 24.8614 48.1949C25.1745 48.7282 25.6663 49.1335 26.2497 49.339V54.75H1.74969V35.8867C2.63059 35.6282 3.54414 35.498 4.46219 35.5H10.6099C10.8033 36.2521 11.2413 36.9185 11.855 37.3944C12.4686 37.8702 13.2231 38.1285 13.9997 38.1285C14.7762 38.1285 15.5307 37.8702 16.1444 37.3944C16.7581 36.9185 17.1961 36.2521 17.3894 35.5H23.6247C24.4364 35.4991 25.2449 35.6011 26.0309 35.8036C26.2558 35.8616 26.4945 35.828 26.6945 35.71C26.8946 35.592 27.0395 35.3994 27.0976 35.1745C27.1556 34.9496 27.1219 34.7109 27.0039 34.5109C26.8859 34.3109 26.6933 34.1659 26.4684 34.1079C25.5393 33.8698 24.5839 33.7496 23.6247 33.75H17.4997V31.3875C19.5442 30.6633 21.3146 29.3242 22.5678 27.5539C23.8211 25.7837 24.4959 23.669 24.4997 21.5C25.2693 21.5027 26.0182 21.2507 26.6298 20.7835C27.2413 20.3162 27.6812 19.6599 27.8809 18.9166C28.0806 18.1733 28.0289 17.3849 27.7338 16.6741C27.4388 15.9632 26.917 15.3699 26.2497 14.9865V11.875C26.2462 8.85923 25.0467 5.96797 22.9142 3.8355C20.7817 1.70302 17.8905 0.503474 14.8747 0.5L13.1247 0.5C10.1089 0.503474 7.21766 1.70302 5.08519 3.8355C2.95271 5.96797 1.75316 8.85923 1.74969 11.875V14.9865C1.08237 15.3699 0.560562 15.9632 0.265533 16.6741C-0.0294961 17.3849 -0.0811881 18.1733 0.118507 18.9166C0.318202 19.6599 0.758075 20.3162 1.36962 20.7835C1.98117 21.2507 2.73007 21.5027 3.49969 21.5C3.50344 23.669 4.17825 25.7837 5.43153 27.5539C6.68482 29.3242 8.45517 30.6633 10.4997 31.3875V33.75H4.46219C3.13588 33.7468 1.81945 33.9782 0.573688 34.4334C0.405371 34.495 0.260055 34.6069 0.157394 34.7539C0.0547335 34.9008 -0.000317183 35.0757 -0.000311742 35.255V55.625C-0.000311742 55.8571 0.0918755 56.0796 0.25597 56.2437C0.420064 56.4078 0.642624 56.5 0.874688 56.5H34.1247C34.3568 56.5 34.5793 56.4078 34.7434 56.2437C34.9075 56.0796 34.9997 55.8571 34.9997 55.625V53.875C34.9997 53.6429 34.9075 53.4204 34.7434 53.2563C34.5793 53.0922 34.3568 53 34.1247 53C33.8926 53 33.6701 53.0922 33.506 53.2563C33.3419 53.4204 33.2497 53.6429 33.2497 53.875V54.75H27.9997V49.5H31.4997C31.7318 49.5 31.9543 49.4078 32.1184 49.2437C32.2825 49.0796 32.3747 48.8571 32.3747 48.625C32.3747 48.3929 32.2825 48.1704 32.1184 48.0063C31.9543 47.8422 31.7318 47.75 31.4997 47.75H27.1247C26.8926 47.75 26.6701 47.6578 26.506 47.4937C26.3419 47.3296 26.2497 47.1071 26.2497 46.875C26.2497 46.6429 26.3419 46.4204 26.506 46.2563C26.6701 46.0922 26.8926 46 27.1247 46H33.5577C33.0817 46.4941 32.8188 47.1553 32.8255 47.8413C32.8322 48.5274 33.108 49.1833 33.5936 49.668L31.7377 51.5239C31.6564 51.6051 31.5919 51.7016 31.5479 51.8077C31.5039 51.9139 31.4812 52.0277 31.4811 52.1426C31.4811 52.2576 31.5037 52.3714 31.5476 52.4776C31.5916 52.5838 31.656 52.6803 31.7372 52.7616C31.8185 52.8429 31.9149 52.9074 32.0211 52.9514C32.1273 52.9954 32.2411 53.0181 32.356 53.0181C32.4709 53.0182 32.5847 52.9956 32.6909 52.9516C32.7971 52.9077 32.8936 52.8432 32.9749 52.762L34.8317 50.9053C35.3239 51.3974 35.9915 51.6738 36.6876 51.6738C37.3836 51.6738 38.0512 51.3974 38.5434 50.9053L46.7011 42.7485C47.1001 42.9406 47.5415 43.0282 47.9837 43.003C48.4259 42.9778 48.8544 42.8407 49.2291 42.6046C49.6038 42.3684 49.9124 42.041 50.1258 41.6529C50.3393 41.2648 50.4507 40.8289 50.4496 40.386C50.4506 40.0411 50.3832 39.6995 50.2512 39.3809C50.1191 39.0623 49.9251 38.7731 49.6804 38.5301L52.2696 35.9401C52.8272 36.2076 53.4615 36.269 54.06 36.1135C54.6586 35.958 55.1828 35.5956 55.5397 35.0906C55.8967 34.5855 56.0633 33.9704 56.0101 33.3543C55.9568 32.7381 55.6872 32.1607 55.2489 31.7244V31.7261ZM24.4997 19.75V16.25C24.9638 16.25 25.4089 16.4344 25.7371 16.7626C26.0653 17.0908 26.2497 17.5359 26.2497 18C26.2497 18.4641 26.0653 18.9092 25.7371 19.2374C25.4089 19.5656 24.9638 19.75 24.4997 19.75ZM1.74969 18C1.74969 17.5359 1.93406 17.0908 2.26225 16.7626C2.59044 16.4344 3.03556 16.25 3.49969 16.25V19.75C3.03556 19.75 2.59044 19.5656 2.26225 19.2374C1.93406 18.9092 1.74969 18.4641 1.74969 18ZM5.24969 21.5V16.25H13.4248C13.9995 16.2514 14.5688 16.1388 15.0997 15.9188C15.6307 15.6988 16.1127 15.3757 16.5179 14.9681L18.1183 13.3686C18.2777 13.2036 18.3659 12.9826 18.3639 12.7531C18.3619 12.5237 18.2699 12.3043 18.1077 12.142C17.9454 11.9798 17.726 11.8878 17.4965 11.8858C17.2671 11.8838 17.0461 11.972 16.8811 12.1314L15.2807 13.7309C14.7876 14.2218 14.1206 14.4982 13.4248 14.5H3.49969V11.875C3.5027 9.32322 4.51772 6.87681 6.32211 5.07242C8.1265 3.26804 10.5729 2.25301 13.1247 2.25H14.8747C17.4265 2.25301 19.8729 3.26804 21.6773 5.07242C23.4817 6.87681 24.4967 9.32322 24.4997 11.875V14.5H21.5746C20.9353 14.4999 20.318 14.2666 19.8386 13.8438C19.7524 13.7677 19.6521 13.7094 19.5434 13.6722C19.4347 13.635 19.3197 13.6195 19.205 13.6267C19.0903 13.6339 18.9782 13.6636 18.875 13.7141C18.7718 13.7646 18.6795 13.835 18.6035 13.9212C18.5275 14.0074 18.4692 14.1077 18.432 14.2164C18.3947 14.3251 18.3792 14.4401 18.3864 14.5548C18.3936 14.6694 18.4233 14.7816 18.4739 14.8848C18.5244 14.988 18.5948 15.0802 18.6809 15.1562C19.4801 15.861 20.509 16.25 21.5746 16.25H22.7497V21.5C22.7497 23.8206 21.8278 26.0462 20.1869 27.6872C18.5459 29.3281 16.3203 30.25 13.9997 30.25C11.679 30.25 9.45345 29.3281 7.8125 27.6872C6.17156 26.0462 5.24969 23.8206 5.24969 21.5ZM13.9997 32C14.5864 31.9963 15.1718 31.9433 15.7497 31.8416V34.625C15.7497 35.0891 15.5653 35.5342 15.2371 35.8624C14.9089 36.1906 14.4638 36.375 13.9997 36.375C13.5356 36.375 13.0904 36.1906 12.7623 35.8624C12.4341 35.5342 12.2497 35.0891 12.2497 34.625V31.8416C12.8276 31.9433 13.413 31.9963 13.9997 32ZM37.3062 49.668C37.1421 49.832 36.9196 49.9242 36.6876 49.9242C36.4555 49.9242 36.233 49.832 36.0689 49.668L34.8317 48.4307C34.6676 48.2667 34.5755 48.0441 34.5755 47.8121C34.5755 47.5801 34.6676 47.3576 34.8317 47.1935L35.4503 46.5749L36.6876 47.8121C36.8526 47.9715 37.0736 48.0597 37.303 48.0577C37.5325 48.0557 37.7519 47.9637 37.9142 47.8015C38.0764 47.6392 38.1684 47.4198 38.1704 47.1903C38.1724 46.9609 38.0842 46.7399 37.9248 46.5749L36.6876 45.3376L37.9257 44.0995L38.5434 44.7181C38.6242 44.8017 38.7207 44.8684 38.8275 44.9142C38.9342 44.9601 39.049 44.9842 39.1652 44.9852C39.2814 44.9862 39.3966 44.9641 39.5041 44.9201C39.6117 44.8761 39.7094 44.8111 39.7915 44.729C39.8737 44.6468 39.9387 44.5491 39.9827 44.4416C40.0266 44.334 40.0488 44.2188 40.0478 44.1026C40.0468 43.9865 40.0226 43.8717 39.9768 43.7649C39.9309 43.6581 39.8643 43.5616 39.7807 43.4809L39.1629 42.8623L40.4002 41.625L41.6374 42.8623C41.8025 43.0216 42.0235 43.1098 42.2529 43.1078C42.4823 43.1058 42.7018 43.0138 42.864 42.8516C43.0263 42.6894 43.1183 42.4699 43.1203 42.2405C43.1223 42.0111 43.0341 41.79 42.8747 41.625L41.6374 40.3877L42.8747 39.1505L45.3501 41.625L37.3062 49.668ZM48.4432 41.0055C48.2791 41.1695 48.0566 41.2617 47.8246 41.2617C47.5925 41.2617 47.37 41.1695 47.2059 41.0055L43.4933 37.2938C43.3291 37.1296 43.2369 36.9069 43.2369 36.6747C43.2369 36.4425 43.3291 36.2198 43.4933 36.0556C43.6575 35.8914 43.8802 35.7992 44.1124 35.7992C44.3446 35.7992 44.5673 35.8914 44.7314 36.0556L45.6589 36.9831L47.8246 39.1496L48.4423 39.7674C48.6063 39.9315 48.6985 40.154 48.6985 40.386C48.6985 40.618 48.6063 40.8405 48.4423 41.0046L48.4432 41.0055ZM48.4432 37.2929L47.4527 36.3032L47.2059 36.0556L49.6804 33.5811L50.9177 34.8184L48.4432 37.2929ZM54.0117 34.1997C53.9304 34.2811 53.8339 34.3456 53.7277 34.3897C53.6215 34.4337 53.5076 34.4564 53.3926 34.4564C53.2776 34.4564 53.1638 34.4337 53.0576 34.3897C52.9513 34.3456 52.8548 34.2811 52.7736 34.1997L50.2991 31.7253C50.2178 31.644 50.1534 31.5475 50.1095 31.4413C50.0655 31.3351 50.0429 31.2212 50.0429 31.1063C50.043 30.9914 50.0657 30.8776 50.1097 30.7714C50.1537 30.6653 50.2182 30.5688 50.2995 30.4876C50.3808 30.4063 50.4773 30.3419 50.5835 30.2979C50.6897 30.254 50.8035 30.2314 50.9184 30.2314C51.0334 30.2315 51.1472 30.2542 51.2533 30.2982C51.3595 30.3422 51.456 30.4067 51.5372 30.488L54.0117 32.9625C54.093 33.0438 54.1576 33.1403 54.2016 33.2465C54.2457 33.3527 54.2683 33.4666 54.2683 33.5816C54.2683 33.6965 54.2457 33.8104 54.2016 33.9166C54.1576 34.0229 54.093 34.1185 54.0117 34.1997Z" fill="#F96161"/>
<path d="M32.375 35.5H33.25V36.375C33.25 36.6071 33.3422 36.8296 33.5063 36.9937C33.6704 37.1578 33.8929 37.25 34.125 37.25C34.3571 37.25 34.5796 37.1578 34.7437 36.9937C34.9078 36.8296 35 36.6071 35 36.375V35.5H35.875C36.1071 35.5 36.3296 35.4078 36.4937 35.2437C36.6578 35.0796 36.75 34.8571 36.75 34.625C36.75 34.3929 36.6578 34.1704 36.4937 34.0063C36.3296 33.8422 36.1071 33.75 35.875 33.75H35V32.875C35 32.6429 34.9078 32.4204 34.7437 32.2563C34.5796 32.0922 34.3571 32 34.125 32C33.8929 32 33.6704 32.0922 33.5063 32.2563C33.3422 32.4204 33.25 32.6429 33.25 32.875V33.75H32.375C32.1429 33.75 31.9204 33.8422 31.7563 34.0063C31.5922 34.1704 31.5 34.3929 31.5 34.625C31.5 34.8571 31.5922 35.0796 31.7563 35.2437C31.9204 35.4078 32.1429 35.5 32.375 35.5Z" fill="#F96161"/>
<path d="M39.375 32H40.25V32.875C40.25 33.1071 40.3422 33.3296 40.5063 33.4937C40.6704 33.6578 40.8929 33.75 41.125 33.75C41.3571 33.75 41.5796 33.6578 41.7437 33.4937C41.9078 33.3296 42 33.1071 42 32.875V32H42.875C43.1071 32 43.3296 31.9078 43.4937 31.7437C43.6578 31.5796 43.75 31.3571 43.75 31.125C43.75 30.8929 43.6578 30.6704 43.4937 30.5063C43.3296 30.3422 43.1071 30.25 42.875 30.25H42V29.375C42 29.1429 41.9078 28.9204 41.7437 28.7563C41.5796 28.5922 41.3571 28.5 41.125 28.5C40.8929 28.5 40.6704 28.5922 40.5063 28.7563C40.3422 28.9204 40.25 29.1429 40.25 29.375V30.25H39.375C39.1429 30.25 38.9204 30.3422 38.7563 30.5063C38.5922 30.6704 38.5 30.8929 38.5 31.125C38.5 31.3571 38.5922 31.5796 38.7563 31.7437C38.9204 31.9078 39.1429 32 39.375 32Z" fill="#F96161"/>
<path d="M34.125 26.75H35V27.625C35 27.8571 35.0922 28.0796 35.2563 28.2437C35.4204 28.4078 35.6429 28.5 35.875 28.5C36.1071 28.5 36.3296 28.4078 36.4937 28.2437C36.6578 28.0796 36.75 27.8571 36.75 27.625V26.75H37.625C37.8571 26.75 38.0796 26.6578 38.2437 26.4937C38.4078 26.3296 38.5 26.1071 38.5 25.875C38.5 25.6429 38.4078 25.4204 38.2437 25.2563C38.0796 25.0922 37.8571 25 37.625 25H36.75V24.125C36.75 23.8929 36.6578 23.6704 36.4937 23.5063C36.3296 23.3422 36.1071 23.25 35.875 23.25C35.6429 23.25 35.4204 23.3422 35.2563 23.5063C35.0922 23.6704 35 23.8929 35 24.125V25H34.125C33.8929 25 33.6704 25.0922 33.5063 25.2563C33.3422 25.4204 33.25 25.6429 33.25 25.875C33.25 26.1071 33.3422 26.3296 33.5063 26.4937C33.6704 26.6578 33.8929 26.75 34.125 26.75Z" fill="#F96161"/>
</svg>
