<svg width="56" height="41" viewBox="0 0 56 41" fill="none" xmlns="http://www.w3.org/2000/svg">
<path d="M55.0956 9.68714H52.6738C52.6133 9.68714 52.5527 9.68714 52.4922 9.74769C52.4922 9.74769 52.4922 9.74769 52.4317 9.74769C52.3711 9.74769 52.3711 9.74769 52.3106 9.80823L43.2289 16.4681C43.1078 16.5892 42.9867 16.7709 42.9867 16.9525H37.5377V13.3198C37.5377 11.3218 35.903 9.68714 33.905 9.68714H17.5579V7.26536C17.5579 6.90209 17.8001 6.65991 18.1634 6.65991H36.3268C36.3268 7.68917 37.1139 8.47625 38.1431 8.47625H46.6194C47.6486 8.47625 48.4357 7.68917 48.4357 6.65991V1.81634C48.4357 0.78708 47.6486 0 46.6194 0H38.1431C37.1139 0 36.3268 0.78708 36.3268 1.81634H7.8708C5.87283 1.81634 4.23812 3.45104 4.23812 5.44902V9.68714H3.63268C1.63471 9.68714 0 11.3218 0 13.3198V36.3268C0 38.3248 1.63471 39.9595 3.63268 39.9595H33.905C35.903 39.9595 37.5377 38.3248 37.5377 36.3268V32.6941H42.9867C42.9867 32.8757 43.1078 33.0574 43.2289 33.1785L52.3106 39.8384C52.3106 39.8384 52.3711 39.8384 52.3711 39.8989C52.3711 39.8989 52.4317 39.8989 52.4317 39.9595C52.4922 39.9595 52.5527 40.02 52.6738 40.02H55.0956C55.4589 40.02 55.7011 39.7778 55.7011 39.4146V10.2926C55.7011 9.92932 55.4589 9.68714 55.0956 9.68714ZM37.5377 1.81634C37.5377 1.45307 37.7799 1.21089 38.1431 1.21089H46.6194C46.9826 1.21089 47.2248 1.45307 47.2248 1.81634V6.65991C47.2248 7.02318 46.9826 7.26536 46.6194 7.26536H38.1431C37.7799 7.26536 37.5377 7.02318 37.5377 6.65991V6.05446V2.42179V1.81634ZM5.44902 5.44902C5.44902 4.11703 6.53882 3.02723 7.8708 3.02723H36.3268V5.44902H18.1634C17.1341 5.44902 16.3471 6.2361 16.3471 7.26536V9.68714H5.44902V5.44902ZM36.3268 36.3268C36.3268 37.6588 35.237 38.7486 33.905 38.7486H3.63268C2.3007 38.7486 1.21089 37.6588 1.21089 36.3268V13.3198C1.21089 11.9878 2.3007 10.898 3.63268 10.898H4.84357H16.9525H33.905C35.237 10.898 36.3268 11.9878 36.3268 13.3198V17.5579V32.0887V36.3268ZM37.5377 31.4832V18.1634H42.9867V31.4832H37.5377ZM44.1976 32.0887V17.5579V17.2552L52.0684 11.5035V38.1431L44.1976 32.3914V32.0887ZM54.4902 38.7486H53.2793V10.898H54.4902V38.7486Z" fill="#F96161"/>
<path d="M30.8779 14.5308H6.66007C5.32808 14.5308 4.23828 15.6206 4.23828 16.9525V32.6942C4.23828 34.0261 5.32808 35.1159 6.66007 35.1159H30.8779C32.2099 35.1159 33.2997 34.0261 33.2997 32.6942V16.9525C33.2997 15.6206 32.2099 14.5308 30.8779 14.5308ZM32.0888 32.6942C32.0888 33.3601 31.5439 33.905 30.8779 33.905H6.66007C5.99408 33.905 5.44917 33.3601 5.44917 32.6942V16.9525C5.44917 16.2866 5.99408 15.7417 6.66007 15.7417H30.8779C31.5439 15.7417 32.0888 16.2866 32.0888 16.9525V32.6942Z" fill="#F96161"/>
</svg>
