<svg width="40" height="40" viewBox="0 0 40 40" fill="none" xmlns="http://www.w3.org/2000/svg">
<rect width="40" height="40" rx="20" fill="#FFF3F3"/>
<path d="M15.349 18.8282L18.8282 11C19.5203 11 20.184 11.2749 20.6733 11.7643C21.1627 12.2536 21.4376 12.9173 21.4376 13.6094V17.0886H26.3607C26.6129 17.0858 26.8626 17.1378 27.0927 17.241C27.3228 17.3443 27.5276 17.4963 27.6931 17.6866C27.8586 17.8769 27.9807 18.1009 28.051 18.3431C28.1213 18.5853 28.1381 18.8398 28.1003 19.0892L26.9 26.9174C26.8371 27.3322 26.6264 27.7103 26.3067 27.982C25.987 28.2537 25.5799 28.4008 25.1604 28.396H15.349M15.349 18.8282V28.396M15.349 18.8282H12.7396C12.2782 18.8282 11.8358 19.0115 11.5095 19.3377C11.1833 19.664 11 20.1064 11 20.5678V26.6564C11 27.1178 11.1833 27.5603 11.5095 27.8865C11.8358 28.2128 12.2782 28.396 12.7396 28.396H15.349" stroke="#F96161" stroke-width="1.5" stroke-linecap="round" stroke-linejoin="round"/>
</svg>
