<svg width="40" height="40" viewBox="0 0 40 40" fill="none" xmlns="http://www.w3.org/2000/svg">
<rect width="40" height="40" rx="20" fill="#FFF3F3"/>
<g clip-path="url(#clip0_601_38487)">
<path d="M30.355 21.5372L28.6773 23.1458L28.8665 25.4629C28.8924 25.7792 28.6922 26.0687 28.3877 26.1572L26.1547 26.8009L25.2466 28.9402C25.1221 29.2323 24.8088 29.3987 24.4999 29.3327L22.2211 28.8658L20.4229 30.3376C20.3001 30.4379 20.1509 30.4881 20.0009 30.4881C19.8509 30.4881 19.7017 30.4379 19.5789 30.3376L17.7811 28.8658L15.5019 29.3327C15.1926 29.3995 14.8802 29.2319 14.7552 28.9402L13.8471 26.8009L11.6141 26.1572C11.3105 26.0687 11.1098 25.7792 11.1353 25.4629L11.3245 23.1458L9.64682 21.5372C9.41758 21.3181 9.37534 20.9674 9.54474 20.7003L10.7895 18.737L10.0503 16.5326C9.94998 16.2321 10.0758 15.9025 10.3499 15.7446L12.3643 14.583L12.7347 12.2888C12.7853 11.9755 13.0489 11.7419 13.3653 11.7291L15.688 11.6376L17.0819 9.77774C17.2729 9.52474 17.6157 9.43982 17.9012 9.57622L20.0005 10.575L22.0997 9.57622C22.3839 9.43938 22.7285 9.5243 22.9185 9.77774L24.3129 11.6376L26.6357 11.7291C26.952 11.7419 27.2156 11.9755 27.2675 12.2884L27.638 14.5825L29.6523 15.7441C29.9264 15.9021 30.0514 16.2317 29.9519 16.5322L29.2132 18.7366L30.4575 20.6999C30.6265 20.9674 30.5842 21.3181 30.355 21.5372Z" stroke="#F96161" stroke-width="1.937" stroke-miterlimit="10" stroke-linecap="round"/>
<path d="M15.9138 18.9328C15.835 18.6824 15.8086 18.5377 15.8086 17.589C15.8086 16.6404 15.8354 16.4956 15.9138 16.2453C16.1245 15.6262 16.678 15.2311 17.4287 15.2311C18.1793 15.2311 18.7328 15.6262 18.9432 16.2453C19.0224 16.4956 19.0488 16.6404 19.0488 17.589C19.0488 18.5372 19.0219 18.6824 18.9432 18.9328C18.7324 19.5519 18.1793 19.947 17.4287 19.947C16.678 19.947 16.1245 19.5519 15.9138 18.9328ZM18.1397 18.722C18.1793 18.5905 18.2057 18.4057 18.2057 17.589C18.2057 16.7724 18.1789 16.588 18.1397 16.456C18.0346 16.1533 17.771 15.9949 17.4287 15.9949C17.0864 15.9949 16.8228 16.1529 16.7176 16.456C16.678 16.5876 16.6516 16.7724 16.6516 17.589C16.6516 18.4057 16.6785 18.59 16.7176 18.722C16.8228 19.0247 17.0864 19.1831 17.4287 19.1831C17.771 19.1831 18.0346 19.0252 18.1397 18.722ZM22.0918 15.3235C22.1446 15.2315 22.197 15.1919 22.3026 15.1919H22.9348C23.014 15.1919 23.04 15.2579 23.0008 15.3235L17.7974 24.3074C17.745 24.3993 17.6922 24.4389 17.5998 24.4389H16.9676C16.8884 24.4389 16.8488 24.3734 16.8884 24.3074L22.0918 15.3235ZM20.8404 22.055C20.8404 21.1064 20.8668 20.9616 20.9456 20.7108C21.1564 20.0917 21.7094 19.6966 22.4605 19.6966C23.2112 19.6966 23.7647 20.0917 23.975 20.7108C24.0542 20.9612 24.0802 21.1059 24.0802 22.055C24.0802 23.0028 24.0538 23.148 23.975 23.3983C23.7642 24.0174 23.2112 24.413 22.4605 24.413C21.7094 24.413 21.1564 24.0179 20.9456 23.3983C20.8668 23.148 20.8404 23.0028 20.8404 22.055ZM22.461 23.6487C22.8033 23.6487 23.0668 23.4907 23.172 23.1876C23.2116 23.056 23.2376 22.8712 23.2376 22.055C23.2376 21.2384 23.2112 21.054 23.172 20.922C23.0668 20.6193 22.8033 20.4609 22.461 20.4609C22.1186 20.4609 21.8546 20.6189 21.7495 20.922C21.7099 21.054 21.6839 21.2384 21.6839 22.055C21.6839 22.8712 21.7103 23.056 21.7495 23.1876C21.8546 23.4907 22.1182 23.6487 22.461 23.6487Z" fill="#F96161"/>
</g>
<defs>
<clipPath id="clip0_601_38487">
<rect width="24" height="24" fill="white" transform="translate(8 8)"/>
</clipPath>
</defs>
</svg>
