<svg width="56" height="57" viewBox="0 0 56 57" fill="none" xmlns="http://www.w3.org/2000/svg">
<path d="M28 10.125C29.4472 10.125 30.625 8.94725 30.625 7.5C30.625 6.05275 29.4472 4.875 28 4.875C26.5527 4.875 25.375 6.05275 25.375 7.5C25.375 8.94725 26.5527 10.125 28 10.125ZM28 6.625C28.4821 6.625 28.875 7.017 28.875 7.5C28.875 7.983 28.4821 8.375 28 8.375C27.5179 8.375 27.125 7.983 27.125 7.5C27.125 7.017 27.5179 6.625 28 6.625Z" fill="#F96161"/>
<path d="M32.375 22.375H30.625V11.875H23.625V17.125H25.375V22.375H23.625V27.625H32.375V22.375ZM30.625 25.875H25.375V24.125H27.125V15.375H25.375V13.625H28.875V24.125H30.625V25.875Z" fill="#F96161"/>
<path d="M51.625 13.625V11.875H42.2161C40.3436 5.80163 34.6797 1.375 28 1.375C21.3202 1.375 15.6564 5.80163 13.7839 11.875H4.375V13.625H0.875V52.125H23.7134C24.1194 54.1191 25.8878 55.625 28 55.625C30.1122 55.625 31.8806 54.1191 32.2866 52.125H55.125V13.625H51.625ZM28 3.125C35.2371 3.125 41.125 9.01288 41.125 16.25C41.125 22.4835 36.6949 27.8945 30.5909 29.1169L30.1717 29.2009L28 33.5435L25.8291 29.2009L25.41 29.1169C19.3051 27.8945 14.875 22.4835 14.875 16.25C14.875 9.01288 20.7629 3.125 28 3.125ZM32.375 30.46C33.2894 30.1791 34.1652 29.8169 34.9904 29.375H46.375V39.875H32.375V30.46ZM6.125 13.625H13.3709C13.2186 14.479 13.125 15.3531 13.125 16.25C13.125 23.1695 17.9428 29.1956 24.6426 30.7418L28 37.4565L30.625 32.2056V41.625H48.125V27.625H37.5559C40.8266 24.867 42.875 20.7528 42.875 16.25C42.875 15.3531 42.7814 14.479 42.6291 13.625H49.875V46.875H28.875V39H27.125V46.875H6.125V13.625ZM53.375 50.375H30.625V51.25C30.625 52.6973 29.4473 53.875 28 53.875C26.5527 53.875 25.375 52.6973 25.375 51.25V50.375H2.625V15.375H4.375V48.625H51.625V15.375H53.375V50.375Z" fill="#F96161"/>
<path d="M25.375 43.375H7.875V45.125H25.375V43.375Z" fill="#F96161"/>
<path d="M25.375 39.875H7.875V41.625H25.375V39.875Z" fill="#F96161"/>
<path d="M25.375 36.375H7.875V38.125H25.375V36.375Z" fill="#F96161"/>
<path d="M23.625 32.875H7.875V34.625H23.625V32.875Z" fill="#F96161"/>
<path d="M48.125 43.375H30.625V45.125H48.125V43.375Z" fill="#F96161"/>
</svg>
