<svg width="44" height="53" viewBox="0 0 44 53" fill="none" xmlns="http://www.w3.org/2000/svg">
<path d="M43.2802 34.3402H42.7202V32.1002C42.7202 31.7642 42.4962 31.5402 42.1602 31.5402H41.0402V27.6202C41.0402 27.4522 40.9842 27.3402 40.8722 27.2282L38.0722 24.4282C38.0162 24.3722 37.9602 24.3162 37.9042 24.3162C38.1282 23.9802 38.2402 23.5882 38.2402 23.1402C38.2402 21.9082 37.2322 20.9002 36.0002 20.9002C34.7682 20.9002 33.7602 21.9082 33.7602 23.1402C33.7602 24.3722 34.7682 25.3802 36.0002 25.3802C36.4482 25.3802 36.8402 25.2682 37.1762 25.0442C37.1762 25.1002 37.2322 25.1562 37.2882 25.2122L39.9202 27.8442V31.5402H38.8002C38.4642 31.5402 38.2402 31.7642 38.2402 32.1002V34.3402H37.6242L37.3442 32.2122C36.5042 26.3882 31.5202 22.0202 25.6962 22.0202C27.2082 21.0122 28.2722 19.3882 28.6082 17.5402H30.9602C32.1922 17.5402 33.2002 16.5322 33.2002 15.3002V13.0602C33.2002 11.9962 32.4722 11.1562 31.5202 10.8762V6.90023C31.5202 3.48423 28.7762 0.740234 25.3602 0.740234H18.6402C15.2242 0.740234 12.4802 3.48423 12.4802 6.90023V10.8762C11.5282 11.1002 10.8002 11.9962 10.8002 13.0602V15.3002C10.8002 16.5322 11.8082 17.5402 13.0402 17.5402H15.3922C15.7282 19.3882 16.7922 21.0122 18.3042 22.0202C12.4802 22.0202 7.49616 26.3882 6.65616 32.2122L6.37616 34.3402H5.76016V32.1002C5.76016 31.7642 5.53616 31.5402 5.20016 31.5402H4.08016V27.8442L6.71216 25.2122C6.76816 25.1562 6.82416 25.1002 6.82416 25.0442C7.16016 25.2682 7.55216 25.3802 8.00016 25.3802C9.23216 25.3802 10.2402 24.3722 10.2402 23.1402C10.2402 21.9082 9.23216 20.9002 8.00016 20.9002C6.76816 20.9002 5.76016 21.9082 5.76016 23.1402C5.76016 23.5882 5.87216 23.9802 6.09616 24.3162C6.04016 24.3162 5.98416 24.3722 5.92816 24.4282L3.12816 27.2282C3.01616 27.3402 2.96016 27.4522 2.96016 27.6202V31.5402H1.84016C1.50416 31.5402 1.28016 31.7642 1.28016 32.1002V34.3402H0.720156C0.384156 34.3402 0.160156 34.5642 0.160156 34.9002V38.2602C0.160156 38.5962 0.384156 38.8202 0.720156 38.8202H1.84016V51.7002C1.84016 52.0362 2.06416 52.2602 2.40016 52.2602H41.6002C41.9362 52.2602 42.1602 52.0362 42.1602 51.7002V38.8202H43.2802C43.6162 38.8202 43.8402 38.5962 43.8402 38.2602V34.9002C43.8402 34.5642 43.6162 34.3402 43.2802 34.3402ZM36.0002 24.2602C35.3842 24.2602 34.8802 23.7562 34.8802 23.1402C34.8802 22.5242 35.3842 22.0202 36.0002 22.0202C36.6162 22.0202 37.1202 22.5242 37.1202 23.1402C37.1202 23.7562 36.6162 24.2602 36.0002 24.2602ZM8.00016 22.0202C8.61616 22.0202 9.12016 22.5242 9.12016 23.1402C9.12016 23.7562 8.61616 24.2602 8.00016 24.2602C7.38416 24.2602 6.88016 23.7562 6.88016 23.1402C6.88016 22.5242 7.38416 22.0202 8.00016 22.0202ZM39.3602 32.6602H41.6002V34.3402H39.3602V32.6602ZM15.8962 10.8202C15.8402 10.8202 15.8402 10.8202 15.8962 10.8202H15.2802V7.46023C15.2802 5.27623 17.0162 3.54023 19.2002 3.54023H24.8002C26.9842 3.54023 28.7202 5.27623 28.7202 7.46023V10.8202H28.1602C25.8642 10.8202 25.3602 9.08423 25.3602 9.02823C25.3042 8.80423 25.1362 8.63623 24.9122 8.63623C24.6882 8.58023 24.4642 8.69223 24.3522 8.91623C23.0642 10.8762 17.8002 10.9882 15.8962 10.8202ZM32.0802 13.0602V15.3002C32.0802 15.9162 31.5762 16.4202 30.9602 16.4202H28.7202V11.9402H30.9602C31.5762 11.9402 32.0802 12.4442 32.0802 13.0602ZM18.6402 1.86023H25.3602C28.1602 1.86023 30.4002 4.10023 30.4002 6.90023V10.8202H29.8402V7.46023C29.8402 4.66023 27.6002 2.42023 24.8002 2.42023H19.2002C16.4002 2.42023 14.1602 4.66023 14.1602 7.46023V10.8202H13.6002V6.90023C13.6002 4.10023 15.8402 1.86023 18.6402 1.86023ZM13.0402 16.4202C12.4242 16.4202 11.9202 15.9162 11.9202 15.3002V13.0602C11.9202 12.4442 12.4242 11.9402 13.0402 11.9402H15.2802V16.4202H13.0402ZM16.4002 16.4202V11.9962C18.0802 12.0522 22.6162 12.0522 24.6882 10.2042C25.1922 10.9882 26.0882 11.7722 27.6002 11.9402V16.4202C27.6002 19.5002 25.0802 22.0202 22.0002 22.0202C18.9202 22.0202 16.4002 19.5002 16.4002 16.4202ZM7.77616 32.3242C8.50416 27.1162 13.0402 23.1402 18.3602 23.1402H25.6962C31.0162 23.1402 35.5522 27.1162 36.2242 32.3242L36.5042 34.3402H7.49616L7.77616 32.3242ZM2.40016 32.6602H4.64016V34.3402H2.40016V32.6602ZM41.0402 51.1402H2.96016V38.8202H41.0402V51.1402ZM42.7202 37.7002H41.6002H2.40016H1.28016V35.4602H1.84016H5.20016H6.88016H37.1202H38.8002H42.1602H42.7202V37.7002Z" fill="#F96161"/>
</svg>
