<svg width="24" height="24" viewBox="0 0 24 24" fill="none" xmlns="http://www.w3.org/2000/svg">
<g clip-path="url(#clip0_601_39825)">
<path d="M22.5 11.2498C22.5015 10.4988 22.315 9.75936 21.9576 9.09887C21.6001 8.43838 21.083 7.87786 20.4535 7.46839C19.8239 7.05893 19.1019 6.81354 18.3532 6.7546C17.6045 6.69566 16.8529 6.82504 16.167 7.13095C15.4812 7.43685 14.8827 7.90956 14.4263 8.50597C13.9699 9.10239 13.67 9.80355 13.554 10.5456C13.438 11.2875 13.5095 12.0468 13.7621 12.7541C14.0147 13.4613 14.4402 14.0941 15 14.5948V21.7498L18 20.337L21 21.7498V14.5948C21.4715 14.1744 21.8489 13.659 22.1074 13.0826C22.3659 12.5061 22.4997 11.8816 22.5 11.2498ZM19.5 19.3856L18 18.6795L16.5 19.3856V15.4873C17.4693 15.8374 18.5306 15.8374 19.5 15.4873V19.3856ZM18 14.2498C17.4066 14.2498 16.8266 14.0739 16.3333 13.7442C15.8399 13.4146 15.4554 12.946 15.2284 12.3979C15.0013 11.8497 14.9419 11.2465 15.0576 10.6645C15.1734 10.0826 15.4591 9.54805 15.8787 9.1285C16.2982 8.70894 16.8328 8.42322 17.4147 8.30746C17.9967 8.19171 18.5999 8.25112 19.148 8.47818C19.6962 8.70524 20.1648 9.08976 20.4944 9.58311C20.824 10.0765 21 10.6565 21 11.2498C20.9991 12.0452 20.6827 12.8077 20.1203 13.3702C19.5579 13.9326 18.7954 14.2489 18 14.2498Z" fill="#F96161"/>
<path d="M10.5 1.5C9.30693 1.50131 8.1631 1.97584 7.31947 2.81947C6.47584 3.6631 6.00131 4.80693 6 6V10.5H4.5C4.10232 10.5005 3.72105 10.6586 3.43984 10.9398C3.15864 11.2211 3.00046 11.6023 3 12V21C3.00046 21.3977 3.15864 21.7789 3.43984 22.0602C3.72105 22.3414 4.10232 22.4995 4.5 22.5H12.75V21H4.5V12H11.25V10.5H7.5V6C7.4991 5.25598 7.77471 4.53817 8.27332 3.98593C8.77193 3.4337 9.45795 3.08645 10.1982 3.0116C10.9385 2.93675 11.6801 3.13965 12.2792 3.5809C12.8782 4.02214 13.2919 4.67026 13.44 5.3994L14.91 5.1006C14.7005 4.08514 14.1476 3.17282 13.3445 2.51707C12.5413 1.86132 11.5368 1.50216 10.5 1.5Z" fill="#F96161"/>
</g>
<defs>
<clipPath id="clip0_601_39825">
<rect width="24" height="24" fill="white"/>
</clipPath>
</defs>
</svg>
