<svg width="24" height="24" viewBox="0 0 24 24" fill="none" xmlns="http://www.w3.org/2000/svg">
<g clip-path="url(#clip0_601_39726)">
<path d="M11.1666 5.3332H5.33329C4.89127 5.3332 4.46734 5.50879 4.15478 5.82135C3.84222 6.13391 3.66663 6.55784 3.66663 6.99986V18.6665C3.66663 19.1086 3.84222 19.5325 4.15478 19.845C4.46734 20.1576 4.89127 20.3332 5.33329 20.3332H17C17.442 20.3332 17.8659 20.1576 18.1785 19.845C18.491 19.5325 18.6666 19.1086 18.6666 18.6665V12.8332M17.4166 4.0832C17.7481 3.75168 18.1978 3.56543 18.6666 3.56543C19.1355 3.56543 19.5851 3.75168 19.9166 4.0832C20.2481 4.41472 20.4344 4.86436 20.4344 5.3332C20.4344 5.80204 20.2481 6.25168 19.9166 6.5832L12 14.4999L8.66663 15.3332L9.49996 11.9999L17.4166 4.0832Z" stroke="#F96161" stroke-width="1.8" stroke-linecap="round" stroke-linejoin="round"/>
</g>
<defs>
<clipPath id="clip0_601_39726">
<rect width="20" height="20" fill="white" transform="translate(2 2)"/>
</clipPath>
</defs>
</svg>
