<svg width="24" height="24" viewBox="0 0 24 24" fill="none" xmlns="http://www.w3.org/2000/svg">
<path d="M20.1703 1.41566C20.1596 1.37836 20.149 1.34105 20.133 1.30375C20.1223 1.28776 20.117 1.26645 20.1063 1.25046C20.0743 1.2025 20.037 1.15454 19.9891 1.11724C19.9411 1.07993 19.8878 1.05329 19.8345 1.03197C19.8132 1.02664 19.7972 1.02132 19.7759 1.01599C19.7386 1.00533 19.7013 1 19.6587 1C19.6374 1 19.6161 1 19.5947 1C19.5574 1 19.5201 1.01066 19.4828 1.02132C19.4615 1.02665 19.4402 1.03197 19.4242 1.04263C19.4136 1.04263 19.4029 1.04796 19.3922 1.05329L1.27382 11.1943C1.07665 11.3062 0.970071 11.53 1.00737 11.7485C1.04468 11.9723 1.22053 12.1482 1.44435 12.1855L7.39145 13.1766V20.7171C7.39145 20.9569 7.55132 21.1701 7.78579 21.234C7.83376 21.2447 7.87639 21.25 7.92435 21.25C8.11086 21.25 8.28671 21.1541 8.38264 20.9836L11.6706 15.3509L13.8661 18.868C13.978 19.0438 14.1752 19.1397 14.3884 19.1131C14.5962 19.0864 14.7667 18.9426 14.8307 18.7454L20.1596 1.69276C20.1596 1.69276 20.1596 1.67145 20.1596 1.66079C20.1649 1.63947 20.1649 1.61816 20.1703 1.59151C20.1703 1.55421 20.1703 1.51691 20.1703 1.47961C20.1703 1.45829 20.1703 1.43697 20.1596 1.41566H20.1703ZM7.75382 12.1535L3.12297 11.3808L16.2482 4.04283L7.75382 12.1482V12.1535ZM11.207 14.0399C11.207 14.0399 11.2017 14.0506 11.1963 14.0506L8.45724 18.7401V12.9475L16.9463 4.84217L11.2016 14.0346L11.207 14.0399ZM14.1592 17.3226L12.2834 14.3277L17.9055 5.33776L14.1592 17.3279V17.3226Z" fill="#F96161"/>
</svg>
