<svg width="24" height="21" viewBox="0 0 24 21" fill="none" xmlns="http://www.w3.org/2000/svg">
<path d="M22.5925 0.0025456C20.3092 0.148327 15.7708 0.678952 12.9692 2.60833C12.7758 2.74145 12.6662 2.97817 12.6662 3.22567V20.2821C12.6662 20.8235 13.1925 21.1657 13.6362 20.9144C16.5187 19.2822 20.6875 18.8369 22.7487 18.715C23.4525 18.6733 23.9996 18.0386 23.9996 17.2779V1.44161C24 0.611452 23.36 -0.0462044 22.5925 0.0025456ZM11.0304 2.60833C8.22917 0.678952 3.69083 0.148796 1.4075 0.0025456C0.64 -0.0462044 0 0.611452 0 1.44161V17.2783C0 18.0396 0.547083 18.6743 1.25083 18.7155C3.31292 18.8374 7.48375 19.2832 10.3662 20.9163C10.8087 21.1671 11.3333 20.8254 11.3333 20.2854V3.21723C11.3333 2.96926 11.2242 2.74192 11.0304 2.60833Z" fill="#F96161"/>
</svg>
