<svg width="56" height="57" viewBox="0 0 56 57" fill="none" xmlns="http://www.w3.org/2000/svg">
<g clip-path="url(#clip0_601_38972)">
<path d="M34.125 4.875H4.375V15.375H31.5H34.125V4.875ZM32.375 13.625H6.125V6.625H32.375V13.625Z" fill="#F96161"/>
<path d="M9.625 25.875H11.375V24.125H13.125V22.375H11.375V20.625H9.625V22.375H7.875V24.125H9.625V25.875Z" fill="#F96161"/>
<path d="M9.26264 39.7244L10.4999 38.4871L11.7371 39.7244L12.9744 38.4871L11.7371 37.2499L12.9744 36.0126L11.7371 34.7754L10.4999 36.0126L9.26264 34.7754L8.02539 36.0126L9.26264 37.2499L8.02539 38.4871L9.26264 39.7244Z" fill="#F96161"/>
<path d="M31.5 18.875C24.745 18.875 19.25 24.37 19.25 31.125C19.25 37.88 24.745 43.375 31.5 43.375C38.255 43.375 43.75 37.88 43.75 31.125C43.75 24.37 38.255 18.875 31.5 18.875ZM31.5 41.625C25.7101 41.625 21 36.9149 21 31.125C21 25.3351 25.7101 20.625 31.5 20.625C37.2899 20.625 42 25.3351 42 31.125C42 36.9149 37.2899 41.625 31.5 41.625Z" fill="#F96161"/>
<path d="M22.75 31.125C22.75 34.051 24.2034 36.7714 26.6376 38.4015L27.6115 36.9472C25.6629 35.6426 24.5 33.4665 24.5 31.125C24.5 27.2654 27.6404 24.125 31.5 24.125V22.375C26.6753 22.375 22.75 26.3002 22.75 31.125Z" fill="#F96161"/>
<path d="M28.5791 39.3753C29.5154 39.707 30.498 39.875 31.4999 39.875V38.125C30.6984 38.125 29.9126 37.9911 29.1636 37.7251L28.5791 39.3753Z" fill="#F96161"/>
<path d="M54.1222 50.0801L47.2964 43.6909L48.7436 42.2436L47.5064 41.0064L46.0189 42.4939L44.0283 40.631C46.0408 37.985 47.25 34.6976 47.25 31.125C47.25 24.6115 43.2757 19.0089 37.625 16.6149V1.375H0.875V46.875H31.5C34.1766 46.875 36.6975 46.1995 38.9077 45.0165L41.2309 47.2819L39.6314 48.8814L40.8686 50.1186L42.483 48.5043L49.1934 55.0501C49.8715 55.7283 50.7649 56.1141 51.7081 56.1351C51.7353 56.136 51.7624 56.136 51.7904 56.136C52.7179 56.136 53.5806 55.7825 54.2272 55.135C54.894 54.4683 55.2492 53.574 55.2282 52.6159C55.2072 51.6718 54.8214 50.7784 54.1222 50.0801ZM2.625 45.125V3.125H35.875V16.0059C34.4837 15.6025 33.019 15.375 31.5 15.375C28.9118 15.375 26.474 16.0138 24.318 17.125H18.375V22.375H18.4135C17.6671 23.488 17.0713 24.7069 16.625 25.9949V17.125H4.375V29.375H15.8533C15.7894 29.9508 15.75 30.5326 15.75 31.125H4.375V43.375H16.625V36.2551C17.9576 40.106 20.7366 43.2796 24.318 45.125H2.625ZM21.6221 18.875C21.0919 19.3038 20.5949 19.7684 20.125 20.261V18.875H21.6221ZM14.875 18.875V27.625H6.125V18.875H14.875ZM14.875 32.875V41.625H6.125V32.875H14.875ZM17.5 31.125C17.5 23.4058 23.7808 17.125 31.5 17.125C39.2192 17.125 45.5 23.4058 45.5 31.125C45.5 38.8443 39.2192 45.125 31.5 45.125C23.7808 45.125 17.5 38.8443 17.5 31.125ZM40.446 44.0724C41.335 43.4564 42.1514 42.7485 42.8951 41.9671L44.7808 43.732L42.4681 46.0446L40.446 44.0724ZM52.9909 53.8969C52.6654 54.2233 52.1999 54.3939 51.7484 54.3851C51.2575 54.3738 50.7894 54.1708 50.4236 53.8041L43.7211 47.2661L46.0591 44.9281L52.906 51.3366C53.2648 51.6954 53.4686 52.1626 53.4782 52.6535C53.4896 53.1304 53.3164 53.5714 52.9909 53.8969Z" fill="#F96161"/>
</g>
<defs>
<clipPath id="clip0_601_38972">
<rect width="56" height="56" fill="white" transform="translate(0 0.5)"/>
</clipPath>
</defs>
</svg>
