<svg width="45" height="56" viewBox="0 0 45 56" fill="none" xmlns="http://www.w3.org/2000/svg">
<path d="M39.6571 47.4781H10.1441C8.19321 43.7324 7.86546 39.3156 9.31692 35.3514C11.8297 28.5155 17.5419 23.0998 24.8928 21.1489C32.2438 23.0998 37.956 28.5155 40.4687 35.3514C41.9358 39.3156 41.608 43.7324 39.6571 47.4781Z" stroke="#F96161" stroke-width="2" stroke-miterlimit="10" stroke-linecap="round" stroke-linejoin="round"/>
<path d="M12.4384 12.44H4.38517C3.85453 11.4099 3.76088 10.2082 4.16667 9.13129C4.85338 7.25843 6.41409 5.79137 8.42741 5.24512C10.4407 5.77576 12.0014 7.25843 12.6882 9.13129C13.0627 10.2082 12.9691 11.4255 12.4384 12.44Z" stroke="#F96161" stroke-width="2" stroke-miterlimit="10" stroke-linecap="round" stroke-linejoin="round"/>
<path d="M9.31879 35.3512C10.0367 33.3847 11.0356 31.5431 12.2373 29.8575V12.4399H4.57422V47.4779H10.1304C8.17946 43.7322 7.85172 39.3154 9.31879 35.3512Z" stroke="#F96161" stroke-width="2" stroke-miterlimit="10" stroke-linecap="round" stroke-linejoin="round"/>
<path d="M24.8936 21.1489V16.8882" stroke="#F96161" stroke-width="2" stroke-miterlimit="10" stroke-linecap="round" stroke-linejoin="round"/>
<path d="M8.41406 5.24514V1" stroke="#F96161" stroke-width="2" stroke-miterlimit="10" stroke-linecap="round" stroke-linejoin="round"/>
<path d="M43.623 47.478H1V54.47H43.623V47.478Z" stroke="#F96161" stroke-width="2" stroke-miterlimit="10" stroke-linecap="round" stroke-linejoin="round"/>
</svg>
