<svg width="21" height="21" viewBox="0 0 21 21" fill="none" xmlns="http://www.w3.org/2000/svg">
<path d="M12.1663 2.1665H5.49967C5.05765 2.1665 4.63372 2.3421 4.32116 2.65466C4.0086 2.96722 3.83301 3.39114 3.83301 3.83317V17.1665C3.83301 17.6085 4.0086 18.0325 4.32116 18.345C4.63372 18.6576 5.05765 18.8332 5.49967 18.8332H15.4997C15.9417 18.8332 16.3656 18.6576 16.6782 18.345C16.9907 18.0325 17.1663 17.6085 17.1663 17.1665V7.1665L12.1663 2.1665Z" stroke="#B3B3B3" stroke-width="2" stroke-linecap="round" stroke-linejoin="round"/>
<path d="M12.167 2.1665V7.1665H17.167" stroke="#B3B3B3" stroke-width="1.5" stroke-linecap="round" stroke-linejoin="round"/>
<path d="M13.8337 11.3335H7.16699" stroke="#B3B3B3" stroke-width="1.5" stroke-linecap="round" stroke-linejoin="round"/>
<path d="M13.8337 14.6665H7.16699" stroke="#B3B3B3" stroke-width="1.5" stroke-linecap="round" stroke-linejoin="round"/>
<path d="M8.83366 8H8.00033H7.16699" stroke="#B3B3B3" stroke-width="1.5" stroke-linecap="round" stroke-linejoin="round"/>
</svg>
