<svg width="56" height="57" viewBox="0 0 56 57" fill="none" xmlns="http://www.w3.org/2000/svg">
<path d="M52.1341 36.6482C51.7463 36.6538 51.3616 36.7181 50.9927 36.8389L47.8437 31.3475C48.232 30.9827 48.5417 30.5413 48.7534 30.0508C48.9651 29.5603 49.0743 29.0311 49.0743 28.4963C49.0743 27.9614 48.9651 27.4323 48.7534 26.9418C48.5417 26.4513 48.232 26.0099 47.8437 25.645L50.9927 20.1511C51.5696 20.3342 52.1812 20.3778 52.7779 20.2785C53.3746 20.1792 53.9398 19.9397 54.4275 19.5794C54.9152 19.2192 55.3118 18.7482 55.5852 18.2048C55.8586 17.6614 56.0011 17.0608 56.0011 16.4516C56.0011 15.8424 55.8586 15.2417 55.5852 14.6983C55.3118 14.1549 54.9152 13.684 54.4275 13.3237C53.9398 12.9635 53.3746 12.724 52.7779 12.6246C52.1812 12.5253 51.5696 12.569 50.9927 12.7521L47.8387 7.25305C48.2754 6.83914 48.6099 6.32803 48.8155 5.76061C49.021 5.19319 49.0919 4.58519 49.0224 3.98524C48.953 3.3853 48.7451 2.81004 48.4154 2.30549C48.0857 1.80095 47.6434 1.3811 47.1238 1.07953C46.6042 0.777957 46.0218 0.603032 45.4231 0.568743C44.8244 0.534454 44.226 0.641752 43.6758 0.882055C43.1256 1.12236 42.6389 1.489 42.2546 1.95266C41.8702 2.41631 41.5989 2.96412 41.4624 3.55227H35.1897C35.0531 2.96412 34.7819 2.41631 34.3975 1.95266C34.0132 1.489 33.5265 1.12236 32.9763 0.882055C32.4261 0.641752 31.8277 0.534454 31.229 0.568743C30.6303 0.603032 30.0478 0.777957 29.5283 1.07953C29.0087 1.3811 28.5663 1.80095 28.2367 2.30549C27.907 2.81004 27.6991 3.3853 27.6296 3.98524C27.5602 4.58519 27.631 5.19319 27.8366 5.76061C28.0421 6.32803 28.3767 6.83914 28.8134 7.25305L25.6695 12.7368C25.1636 12.5842 24.632 12.5381 24.1077 12.6012C23.5834 12.6643 23.0776 12.8354 22.6217 13.1038C22.1658 13.3721 21.7696 13.732 21.4576 14.1612C21.1457 14.5903 20.9247 15.0794 20.8084 15.5982H14.5861C14.4496 15.0119 14.1792 14.4656 13.7964 14.0029C13.4136 13.5402 12.929 13.1738 12.381 12.9327C11.833 12.6917 11.2367 12.5827 10.6396 12.6143C10.0425 12.646 9.46086 12.8175 8.94102 13.1151C8.42118 13.4128 7.97742 13.8284 7.64497 14.3291C7.31252 14.8297 7.10056 15.4015 7.0259 15.9991C6.95125 16.5967 7.01597 17.2036 7.21493 17.7715C7.41388 18.3395 7.74158 18.8529 8.172 19.271L5.00534 24.7955C4.42861 24.6131 3.81736 24.5701 3.22105 24.6699C2.62474 24.7696 2.06012 25.0093 1.57287 25.3697C1.08562 25.73 0.689432 26.2008 0.416352 26.744C0.143273 27.2871 0.000976563 27.8874 0.000976562 28.4963C0.000976563 29.1051 0.143273 29.7054 0.416352 30.2486C0.689432 30.7917 1.08562 31.2625 1.57287 31.6229C2.06012 31.9832 2.62474 32.2229 3.22105 32.3227C3.81736 32.4224 4.42861 32.3794 5.00534 32.197L8.13665 37.6579C7.71686 38.0769 7.39864 38.5877 7.20671 39.1506C7.01479 39.7136 6.95434 40.3135 7.03005 40.9038C7.10577 41.4942 7.31561 42.0589 7.64327 42.5543C7.97094 43.0496 8.4076 43.4622 8.91931 43.7599C9.43102 44.0577 10.004 44.2326 10.5937 44.271C11.1835 44.3094 11.774 44.2103 12.3196 43.9815C12.8651 43.7526 13.3509 43.4001 13.7392 42.9514C14.1275 42.5027 14.4078 41.9699 14.5584 41.3943H20.8361C20.9614 41.8992 21.1864 42.3735 21.4978 42.7889C21.8092 43.2042 22.2006 43.552 22.6485 43.8115C23.0964 44.071 23.5916 44.2369 24.1046 44.2993C24.6176 44.3616 25.1378 44.3191 25.6341 44.1743L28.826 49.7471C28.3883 50.1611 28.053 50.6725 27.8469 51.2406C27.6408 51.8086 27.5697 52.4173 27.6393 53.018C27.7089 53.6187 27.9172 54.1946 28.2476 54.6995C28.578 55.2045 29.0213 55.6245 29.5419 55.9258C30.0624 56.2271 30.6459 56.4014 31.2454 56.4346C31.8449 56.4679 32.4438 56.3593 32.9941 56.1174C33.5444 55.8755 34.0308 55.5071 34.4142 55.0418C34.7977 54.5764 35.0676 54.0271 35.2023 53.4377H41.47C41.6041 54.0281 41.8738 54.5786 42.2575 55.045C42.6411 55.5114 43.128 55.8807 43.679 56.1232C44.23 56.3658 44.8298 56.4748 45.4302 56.4415C46.0307 56.4083 46.615 56.2337 47.1363 55.9317C47.6575 55.6298 48.1013 55.209 48.4318 54.703C48.7624 54.197 48.9705 53.6201 49.0396 53.0184C49.1086 52.4167 49.0366 51.8071 48.8294 51.2386C48.6221 50.67 48.2854 50.1583 47.8462 49.7446L51.0028 44.2405C51.5306 44.3982 52.0859 44.44 52.6312 44.363C53.1764 44.2861 53.6989 44.0922 54.1634 43.7945C54.6279 43.4968 55.0236 43.1022 55.3237 42.6373C55.6239 42.1723 55.8214 41.648 55.9032 41.0996C55.9849 40.5512 55.9488 39.9915 55.7974 39.4583C55.646 38.9252 55.3828 38.4309 55.0255 38.009C54.6683 37.587 54.2253 37.2472 53.7265 37.0124C53.2277 36.7777 52.6847 36.6535 52.1341 36.6482ZM47.3993 28.509C47.3993 29.0884 47.1707 29.6442 46.7639 30.0539C46.3571 30.4637 45.8054 30.6938 45.2301 30.6938C44.6548 30.6938 44.103 30.4637 43.6962 30.0539C43.2894 29.6442 43.0609 29.0884 43.0609 28.509C43.0601 28.2221 43.1153 27.9378 43.2236 27.6724C43.3318 27.407 43.4909 27.1657 43.6918 26.9622C44.0974 26.5513 44.6485 26.3195 45.2238 26.3178C45.7991 26.3161 46.3515 26.5447 46.7595 26.9532C47.1675 27.3618 47.3976 27.9168 47.3993 28.4963V28.509ZM54.2932 16.4528C54.274 17.0191 54.0372 17.5556 53.6327 17.9494C53.2283 18.3431 52.6878 18.5632 52.1253 18.5632C51.5628 18.5632 51.0223 18.3431 50.6178 17.9494C50.2134 17.5556 49.9765 17.0191 49.9574 16.4528C49.9765 15.8866 50.2134 15.35 50.6178 14.9563C51.0223 14.5626 51.5628 14.3425 52.1253 14.3425C52.6878 14.3425 53.2283 14.5626 53.6327 14.9563C54.0372 15.35 54.274 15.8866 54.2932 16.4528ZM45.2301 2.2144C45.7922 2.23372 46.325 2.47224 46.7159 2.87964C47.1068 3.28703 47.3253 3.83143 47.3253 4.39798C47.3253 4.96454 47.1068 5.50894 46.7159 5.91633C46.325 6.32372 45.7922 6.56224 45.2301 6.58157C44.6679 6.56224 44.1352 6.32372 43.7443 5.91633C43.3534 5.50894 43.1349 4.96454 43.1349 4.39798C43.1349 3.83143 43.3534 3.28703 43.7443 2.87964C44.1352 2.47224 44.6679 2.23372 45.2301 2.2144ZM31.422 2.2144C31.9842 2.23372 32.5169 2.47224 32.9078 2.87964C33.2987 3.28703 33.5172 3.83143 33.5172 4.39798C33.5172 4.96454 33.2987 5.50894 32.9078 5.91633C32.5169 6.32372 31.9842 6.56224 31.422 6.58157C30.8598 6.56224 30.3271 6.32372 29.9362 5.91633C29.5453 5.50894 29.3268 4.96454 29.3268 4.39798C29.3268 3.83143 29.5453 3.28703 29.9362 2.87964C30.3271 2.47224 30.8598 2.23372 31.422 2.2144ZM30.2882 8.10003C30.7945 8.25857 31.3279 8.31007 31.855 8.25131C32.382 8.19255 32.8913 8.02479 33.351 7.75855C33.8107 7.49231 34.2108 7.13332 34.5263 6.70408C34.8419 6.27483 35.066 5.78458 35.1846 5.26404H41.4675C41.5864 5.78468 41.8108 6.27497 42.1266 6.70423C42.4424 7.13349 42.8427 7.49246 43.3026 7.75868C43.7625 8.0249 44.272 8.19263 44.7992 8.25136C45.3264 8.3101 45.8599 8.25858 46.3664 8.10003L49.5205 13.6016C49.1326 13.9664 48.8233 14.4076 48.6118 14.8979C48.4004 15.3882 48.2912 15.917 48.2912 16.4516C48.2912 16.9861 48.4004 17.515 48.6118 18.0052C48.8233 18.4955 49.1326 18.9368 49.5205 19.3016L46.3715 24.7955C45.864 24.6358 45.3292 24.5836 44.8006 24.6422C44.2721 24.7009 43.7614 24.869 43.3005 25.1361C42.8397 25.4032 42.4387 25.7634 42.1228 26.1942C41.8069 26.625 41.5829 27.1169 41.4649 27.6391H35.1872C35.0692 27.1169 34.8452 26.625 34.5293 26.1942C34.2134 25.7634 33.8124 25.4032 33.3515 25.1361C32.8907 24.869 32.3799 24.7009 31.8514 24.6422C31.3229 24.5836 30.7881 24.6358 30.2806 24.7955L27.1493 19.3219C27.5479 18.9574 27.8664 18.5129 28.0843 18.0171C28.3023 17.5212 28.4149 16.9849 28.4149 16.4427C28.4149 15.9004 28.3023 15.3641 28.0843 14.8683C27.8664 14.3724 27.5479 13.928 27.1493 13.5634L30.2882 8.10003ZM29.2553 28.4963C29.2745 27.93 29.5113 27.3935 29.9158 26.9997C30.3203 26.606 30.8608 26.3859 31.4233 26.3859C31.9858 26.3859 32.5263 26.606 32.9307 26.9997C33.3352 27.3935 33.572 27.93 33.5912 28.4963C33.572 29.0625 33.3352 29.5991 32.9307 29.9928C32.5263 30.3865 31.9858 30.6066 31.4233 30.6066C30.8608 30.6066 30.3203 30.3865 29.9158 29.9928C29.5113 29.5991 29.2745 29.0625 29.2553 28.4963ZM24.5735 14.268C25.1357 14.2873 25.6684 14.5258 26.0593 14.9332C26.4502 15.3406 26.6687 15.885 26.6687 16.4516C26.6687 17.0181 26.4502 17.5625 26.0593 17.9699C25.6684 18.3773 25.1357 18.6158 24.5735 18.6352C24.0114 18.6158 23.4786 18.3773 23.0877 17.9699C22.6968 17.5625 22.4783 17.0181 22.4783 16.4516C22.4783 15.885 22.6968 15.3406 23.0877 14.9332C23.4786 14.5258 24.0114 14.2873 24.5735 14.268ZM10.8235 14.268C11.3857 14.2873 11.9184 14.5258 12.3093 14.9332C12.7002 15.3406 12.9187 15.885 12.9187 16.4516C12.9187 17.0181 12.7002 17.5625 12.3093 17.9699C11.9184 18.3773 11.3857 18.6158 10.8235 18.6352C10.2614 18.6158 9.72863 18.3773 9.33773 17.9699C8.94683 17.5625 8.72833 17.0181 8.72833 16.4516C8.72833 15.885 8.94683 15.3406 9.33773 14.9332C9.72863 14.5258 10.2614 14.2873 10.8235 14.268ZM1.69726 28.4963C1.71645 27.93 1.95326 27.3935 2.35773 26.9997C2.7622 26.606 3.3027 26.3859 3.86519 26.3859C4.42768 26.3859 4.96818 26.606 5.37265 26.9997C5.77712 27.3935 6.01393 27.93 6.03312 28.4963C6.01393 29.0625 5.77712 29.5991 5.37265 29.9928C4.96818 30.3865 4.42768 30.6066 3.86519 30.6066C3.3027 30.6066 2.7622 30.3865 2.35773 29.9928C1.95326 29.5991 1.71645 29.0625 1.69726 28.4963ZM10.8235 42.6304C10.2614 42.6111 9.72863 42.3726 9.33773 41.9652C8.94683 41.5578 8.72833 41.0134 8.72833 40.4469C8.72833 39.8803 8.94683 39.3359 9.33773 38.9285C9.72863 38.5211 10.2614 38.2826 10.8235 38.2633C11.3857 38.2826 11.9184 38.5211 12.3093 38.9285C12.7002 39.3359 12.9187 39.8803 12.9187 40.4469C12.9187 41.0134 12.7002 41.5578 12.3093 41.9652C11.9184 42.3726 11.3857 42.6111 10.8235 42.6304ZM20.7831 39.6825H14.6114C14.5023 39.1424 14.2803 38.6318 13.9602 38.1847C13.6402 37.7376 13.2294 37.3642 12.7551 37.0892C12.2807 36.8143 11.7538 36.6441 11.2092 36.59C10.6646 36.5359 10.1148 36.599 9.59625 36.7753L6.48009 31.345C6.86792 30.9804 7.17717 30.5394 7.38861 30.0493C7.60005 29.5592 7.70916 29.0306 7.70916 28.4963C7.70916 27.9619 7.60005 27.4333 7.38861 26.9432C7.17717 26.4532 6.86792 26.0121 6.48009 25.6476L9.63665 20.1358C10.1458 20.3035 10.684 20.3623 11.217 20.3084C11.7499 20.2545 12.2659 20.0892 12.7317 19.8229C13.1976 19.5567 13.6032 19.1955 13.9225 18.7623C14.2418 18.3292 14.4679 17.8336 14.5861 17.3075H20.8084C20.925 17.826 21.1462 18.3149 21.4582 18.7437C21.7703 19.1726 22.1666 19.5322 22.6224 19.8003C23.0783 20.0684 23.584 20.2393 24.1082 20.3022C24.6324 20.3652 25.1638 20.3189 25.6695 20.1663L28.8084 25.6476C28.4205 26.0121 28.1113 26.4532 27.8998 26.9432C27.6884 27.4333 27.5793 27.9619 27.5793 28.4963C27.5793 29.0306 27.6884 29.5592 27.8998 30.0493C28.1113 30.5394 28.4205 30.9804 28.8084 31.345L25.7149 36.7474C25.1996 36.5848 24.6561 36.533 24.1196 36.5955C23.5832 36.658 23.0657 36.8332 22.6008 37.1099C22.1358 37.3866 21.7338 37.7586 21.4207 38.2018C21.1075 38.645 20.8903 39.1494 20.7831 39.6825ZM24.571 42.6304C24.0088 42.6111 23.4761 42.3726 23.0852 41.9652C22.6943 41.5578 22.4758 41.0134 22.4758 40.4469C22.4758 39.8803 22.6943 39.3359 23.0852 38.9285C23.4761 38.5211 24.0088 38.2826 24.571 38.2633C25.1332 38.2823 25.666 38.5205 26.0572 38.9276C26.4483 39.3348 26.6671 39.8791 26.6675 40.4456C26.6678 41.0122 26.4496 41.5567 26.0589 41.9643C25.6683 42.372 25.1357 42.6108 24.5735 42.6304H24.571ZM31.4195 54.7858C30.8573 54.7664 30.3246 54.5279 29.9337 54.1205C29.5428 53.7131 29.3243 53.1687 29.3243 52.6022C29.3243 52.0356 29.5428 51.4912 29.9337 51.0838C30.3246 50.6765 30.8573 50.4379 31.4195 50.4186C31.9817 50.4376 32.5145 50.6758 32.9057 51.083C33.2968 51.4901 33.5156 52.0344 33.5159 52.601C33.5163 53.1675 33.2981 53.712 32.9074 54.1197C32.5168 54.5273 31.9816 54.7661 31.4195 54.7858ZM45.2276 54.7858C44.6654 54.7664 44.1327 54.5279 43.7418 54.1205C43.3509 53.7131 43.1324 53.1687 43.1324 52.6022C43.1324 52.0356 43.3509 51.4912 43.7418 51.0838C44.1327 50.6765 44.6654 50.4379 45.2276 50.4186C45.7897 50.4376 46.3226 50.6758 46.7137 51.083C47.1049 51.4901 47.3237 52.0344 47.324 52.601C47.3243 53.1675 47.1062 53.712 46.7155 54.1197C46.3248 54.5273 45.7897 54.7661 45.2276 54.7858ZM49.5205 43.3909L46.3614 48.8976C45.8557 48.7402 45.3232 48.6894 44.7972 48.7485C44.2711 48.8075 43.7628 48.975 43.3039 49.2406C42.845 49.5062 42.4453 49.8642 42.1297 50.2922C41.8142 50.7203 41.5896 51.2092 41.47 51.7285H35.1821C35.0626 51.2105 34.8386 50.7227 34.524 50.2957C34.2093 49.8686 33.8108 49.5113 33.3532 49.246C32.8956 48.9807 32.3887 48.8131 31.864 48.7536C31.3393 48.6941 30.808 48.744 30.3033 48.9001L27.1265 43.3553C27.5297 42.9958 27.8537 42.5553 28.0777 42.0622C28.3018 41.569 28.421 41.0342 28.4276 40.4919C28.4343 39.9496 28.3283 39.4119 28.1164 38.9133C27.9045 38.4148 27.5914 37.9663 27.1973 37.5969L30.2932 32.197C30.8009 32.3563 31.3358 32.4081 31.8643 32.3492C32.3928 32.2902 32.9035 32.1218 33.3643 31.8545C33.8251 31.5872 34.226 31.2268 34.5419 30.796C34.8578 30.3651 35.0818 29.8731 35.1998 29.3509H41.4649C41.583 29.8731 41.8069 30.3651 42.1228 30.796C42.4387 31.2268 42.8396 31.5872 43.3004 31.8545C43.7612 32.1218 44.2719 32.2902 44.8004 32.3492C45.3289 32.4081 45.8638 32.3563 46.3715 32.197L49.5205 37.691C49.1326 38.0558 48.8233 38.497 48.6118 38.9873C48.4004 39.4776 48.2912 40.0064 48.2912 40.541C48.2912 41.0755 48.4004 41.6043 48.6118 42.0946C48.8233 42.5849 49.1326 43.0261 49.5205 43.3909ZM52.1341 42.7245C51.572 42.7052 51.0392 42.4667 50.6483 42.0593C50.2574 41.6519 50.0389 41.1075 50.0389 40.541C50.0389 39.9744 50.2574 39.43 50.6483 39.0226C51.0392 38.6152 51.572 38.3767 52.1341 38.3574C52.6907 38.3844 53.2155 38.6262 53.5999 39.0325C53.9843 39.4388 54.1987 39.9785 54.1987 40.5397C54.1987 41.1009 53.9843 41.6406 53.5999 42.0469C53.2155 42.4532 52.6907 42.6975 52.1341 42.7245Z" fill="#F96161"/>
</svg>
