<svg width="56" height="56" viewBox="0 0 56 56" fill="none" xmlns="http://www.w3.org/2000/svg">
<g clip-path="url(#clip0_601_38846)">
<path d="M54.7706 30.5561C52.553 28.3494 50.8547 25.7417 49.7831 22.8978C49.8591 16.807 47.3131 10.9379 42.7054 6.58146C38.0976 2.22504 31.8054 -0.261794 25.2131 -0.33197C18.6207 -0.402146 12.2682 1.95009 7.55301 6.20727C2.83781 10.4644 0.146164 16.2778 0.0702089 22.3686C-0.705205 30.3565 5.60618 37.256 9.2563 43.6937C10.2017 46.0735 10.7484 48.5727 10.8774 51.105C10.999 52.4442 11.6626 53.6918 12.7357 54.5991C13.8089 55.5064 15.2127 56.0066 16.6673 56H20.0256C21.567 55.998 23.0446 55.4314 24.1346 54.4245C25.2245 53.4175 25.8377 52.0523 25.8399 50.6282V44.7072H33.5022C36.3415 44.7052 39.0639 43.6624 41.0719 41.8077C43.0798 39.953 44.2092 37.438 44.2121 34.8147C44.2121 34.5896 44.1153 34.3737 43.943 34.2146C43.7707 34.0554 43.5371 33.966 43.2934 33.966H34.7126C32.9602 33.9659 31.2346 34.3636 29.6875 35.124C28.1404 35.8844 26.8192 36.9842 25.8399 38.3269V28.8762H29.8169C32.6586 28.8742 35.3831 27.8297 37.3914 25.9723C39.3997 24.1149 40.5275 21.5967 40.5268 18.9712C40.5268 18.7466 40.4304 18.5311 40.2587 18.372C40.087 18.2129 39.8541 18.1232 39.6109 18.1225H34.7126C32.9593 18.1242 31.2334 18.5237 29.6863 19.2858C28.1393 20.0479 26.8185 21.1494 25.8399 22.4934V20.112C25.837 17.4885 24.7077 14.9732 22.6999 13.1181C20.692 11.263 17.9695 10.2197 15.13 10.217H11.4583C11.2148 10.2177 10.9816 10.3073 10.8095 10.4663C10.6374 10.6253 10.5404 10.8408 10.5396 11.0657C10.5404 13.6905 11.6687 16.2077 13.6768 18.0645C15.6849 19.9212 18.4086 20.9656 21.2495 20.9682H24.0027V30.4164C23.0238 29.0728 21.7028 27.9719 20.1558 27.2102C18.6087 26.4485 16.883 26.0494 15.13 26.048H7.78652C7.54311 26.0486 7.30987 26.1383 7.13775 26.2973C6.96564 26.4563 6.86863 26.6718 6.86791 26.8967C6.87077 29.5202 8.00005 32.0355 10.0079 33.8906C12.0158 35.7457 14.7382 36.789 17.5778 36.7917H24.0027V50.6282C24.0019 51.6025 23.5827 52.5367 22.837 53.2257C22.0913 53.9146 21.0802 54.3019 20.0256 54.3026H16.6727C15.6777 54.3077 14.7172 53.9659 13.983 53.3453C13.2487 52.7248 12.7948 51.8713 12.7119 50.9552C12.5243 45.9588 10.6384 41.1438 7.32181 37.1936C4.55326 34.1389 2.75216 30.4368 2.11736 26.496C1.48255 22.5553 2.03874 18.529 3.72452 14.8619C5.41029 11.1947 8.16009 8.02931 11.6703 5.71504C15.1805 3.40077 19.3147 2.02768 23.6163 1.74737C26.7418 1.5974 29.8676 2.03492 32.8048 3.03348C35.7419 4.03203 38.4292 5.57084 40.7039 7.55676C42.9787 9.54269 44.7936 11.9344 46.0389 14.5872C47.2841 17.24 47.9338 20.0986 47.9486 22.9901C48.9513 26.2437 50.8138 29.216 53.3684 31.6395C53.8369 32.0895 54.1058 32.6853 54.1222 33.3095C54.1006 33.4218 54.0331 33.7713 53.3387 34.1432C51.7413 34.9676 50.087 35.6939 48.3863 36.3174C48.1944 36.3858 48.033 36.5119 47.9282 36.6754C47.8233 36.8388 47.781 37.0302 47.8081 37.2185C48.1967 39.8949 48.2294 42.6051 47.9054 45.2888C47.6352 46.5594 44.5363 47.4131 40.1729 47.4131C39.6408 47.3694 39.1049 47.432 38.6013 47.5964C38.0977 47.7608 37.6382 48.0232 37.2539 48.366C36.8696 48.7087 36.5695 49.1237 36.3739 49.5829C36.1783 50.0421 36.0918 50.5348 36.1202 51.0276V55.1413C36.1329 55.3581 36.2351 55.5622 36.4058 55.7115C36.5764 55.8608 36.8024 55.944 37.0374 55.944C37.2725 55.944 37.4985 55.8608 37.6692 55.7115C37.8398 55.5622 37.942 55.3581 37.9547 55.1413V51.0376C37.9345 50.7698 37.979 50.5013 38.0851 50.2515C38.1911 50.0016 38.3561 49.7768 38.568 49.5932C38.7799 49.4096 39.0334 49.272 39.31 49.1902C39.5867 49.1084 39.8796 49.0846 40.1675 49.1205C51.288 49.068 50.3181 45.4535 49.7075 37.6604C52.847 36.3648 58.5018 34.7398 54.7706 30.5561ZM34.7126 35.6609H42.3154C42.0856 37.6745 41.0588 39.5387 39.4321 40.8955C37.8055 42.2523 35.6937 43.0062 33.5022 43.0122H25.8858C26.1159 40.9965 27.1446 39.1306 28.7741 37.7735C30.4036 36.4163 32.5187 35.6639 34.7126 35.6609ZM34.7126 19.8299H38.6356C38.4055 21.8454 37.3766 23.7111 35.7471 25.0678C34.1175 26.4245 32.0024 27.1764 29.8088 27.1788H25.8858C26.1165 25.1635 27.1455 23.2982 28.7749 21.9416C30.4044 20.585 32.5191 19.8329 34.7126 19.8299ZM21.2495 19.2633C19.0571 19.2591 16.9436 18.5065 15.3153 17.15C13.687 15.7935 12.6588 13.9289 12.4282 11.9144H15.13C17.3236 11.9168 19.4387 12.6687 21.0682 14.0254C22.6978 15.3822 23.7266 17.2478 23.9567 19.2633H21.2495ZM17.5778 35.0968C15.384 35.0938 13.2688 34.3413 11.6393 32.9842C10.0098 31.6271 8.98111 29.7611 8.75106 27.7454H15.13C17.3238 27.7484 19.439 28.5009 21.0685 29.858C22.6979 31.2151 23.7267 33.081 23.9567 35.0968H17.5778Z" fill="#F96161"/>
</g>
<defs>
<clipPath id="clip0_601_38846">
<rect width="56" height="56" fill="white"/>
</clipPath>
</defs>
</svg>
