<svg width="36" height="53" viewBox="0 0 36 53" fill="none" xmlns="http://www.w3.org/2000/svg">
<path d="M17.9995 52.75C22.2481 52.7513 26.359 51.2437 29.5996 48.4961C32.8401 45.7485 34.9996 41.9394 35.6931 37.7479C36.3866 33.5563 35.5691 29.2546 33.3862 25.6097C31.2034 21.9648 27.7971 19.2135 23.7745 17.8463L29.8295 14.1188C29.9572 14.041 30.0629 13.9318 30.1364 13.8016C30.21 13.6714 30.2489 13.5245 30.2495 13.375V1.125C30.2495 0.892936 30.1573 0.670376 29.9932 0.506282C29.8291 0.342187 29.6066 0.25 29.3745 0.25H6.62452C6.39245 0.25 6.16989 0.342187 6.0058 0.506282C5.84171 0.670376 5.74952 0.892936 5.74952 1.125V13.375C5.75014 13.5245 5.78908 13.6714 5.8626 13.8016C5.93613 13.9318 6.04179 14.041 6.16952 14.1188L12.2245 17.8463C8.20197 19.2135 4.79566 21.9648 2.61281 25.6097C0.429961 29.2546 -0.387572 33.5563 0.305945 37.7479C0.999462 41.9394 3.15896 45.7485 6.39948 48.4961C9.64001 51.2437 13.751 52.7513 17.9995 52.75ZM28.4995 12.885L25.8745 14.5038V2H28.4995V12.885ZM7.49952 2H10.1245V14.5038L7.49952 12.885V2ZM11.8745 15.58V2H24.1245V15.58L21.4995 17.2162C19.2119 16.7613 16.8571 16.7613 14.5695 17.2162L11.8745 15.58ZM17.9995 18.625C21.2011 18.625 24.3308 19.5744 26.9928 21.3531C29.6548 23.1318 31.7296 25.6599 32.9548 28.6178C34.18 31.5757 34.5006 34.8305 33.876 37.9705C33.2514 41.1106 31.7097 43.9949 29.4458 46.2588C27.1819 48.5227 24.2976 50.0644 21.1575 50.689C18.0175 51.3136 14.7627 50.993 11.8048 49.7678C8.84695 48.5426 6.31881 46.4678 4.54011 43.8058C2.7614 41.1438 1.81202 38.0141 1.81202 34.8125C1.81665 30.5207 3.5236 26.4061 6.55834 23.3713C9.59309 20.3366 13.7077 18.6296 17.9995 18.625Z" fill="#F96161"/>
<path d="M17.9993 48.3752C21.2701 48.3772 24.4314 47.197 26.9008 45.0522C29.3702 42.9074 30.9814 39.9424 31.4374 36.7035C31.8934 33.4647 31.1635 30.1701 29.3823 27.4269C27.6011 24.6836 24.8885 22.6765 21.7443 21.7752C21.634 21.7431 21.5184 21.7329 21.4042 21.7454C21.2899 21.7579 21.1793 21.7928 21.0785 21.848C20.9778 21.9033 20.8889 21.9778 20.817 22.0674C20.745 22.157 20.6915 22.2599 20.6593 22.3702C20.6271 22.4805 20.617 22.5961 20.6295 22.7103C20.6419 22.8246 20.6768 22.9352 20.7321 23.036C20.7873 23.1367 20.8619 23.2256 20.9515 23.2975C21.0411 23.3695 21.144 23.4231 21.2543 23.4552C23.9922 24.2401 26.3543 25.9877 27.9057 28.3762C29.457 30.7648 30.0932 33.6335 29.6969 36.4539C29.3006 39.2744 27.8986 41.8567 25.7492 43.7253C23.5997 45.5939 20.8474 46.6229 17.9993 46.6229C15.1511 46.6229 12.3989 45.5939 10.2494 43.7253C8.0999 41.8567 6.69793 39.2744 6.30166 36.4539C5.9054 33.6335 6.54152 30.7648 8.09289 28.3762C9.64426 25.9877 12.0064 24.2401 14.7443 23.4552C14.9671 23.3903 15.1549 23.2394 15.2665 23.036C15.3781 22.8325 15.4043 22.593 15.3393 22.3702C15.2743 22.1475 15.1235 21.9596 14.92 21.848C14.7165 21.7364 14.4771 21.7103 14.2543 21.7752C11.1101 22.6765 8.39748 24.6836 6.61626 27.4269C4.83504 30.1701 4.10519 33.4647 4.56119 36.7035C5.01719 39.9424 6.62831 42.9074 9.09772 45.0522C11.5671 47.197 14.7285 48.3772 17.9993 48.3752Z" fill="#F96161"/>
<path d="M14.3767 30.3936L11.7517 30.9098C11.3499 30.979 10.9745 31.1565 10.6662 31.4233C10.3578 31.69 10.128 32.0359 10.0017 32.4236C9.88036 32.7979 9.86263 33.1982 9.95044 33.5818C10.0383 33.9654 10.2283 34.3181 10.5005 34.6023L12.338 36.5536C12.3853 36.6013 12.4209 36.6593 12.4421 36.723C12.4634 36.7868 12.4697 36.8545 12.4605 36.9211L12.1455 39.5461C12.0954 39.9331 12.1501 40.3265 12.3041 40.6852C12.458 41.0438 12.7054 41.3545 13.0205 41.5848C13.3439 41.8238 13.725 41.9725 14.1248 42.0155C14.5246 42.0586 14.9286 41.9945 15.2955 41.8298L17.7542 40.7186C17.8232 40.6882 17.8977 40.6725 17.973 40.6725C18.0483 40.6725 18.1228 40.6882 18.1917 40.7186L20.6505 41.8298C21.0173 41.9945 21.4214 42.0586 21.8212 42.0155C22.221 41.9725 22.6021 41.8238 22.9255 41.5848C23.2406 41.3545 23.488 41.0438 23.6419 40.6852C23.7958 40.3265 23.8506 39.9331 23.8005 39.5461L23.4855 36.9211C23.4763 36.8545 23.4826 36.7868 23.5038 36.723C23.5251 36.6593 23.5607 36.6013 23.608 36.5536L25.4455 34.6023C25.7176 34.3181 25.9077 33.9654 25.9955 33.5818C26.0834 33.1982 26.0656 32.7979 25.9442 32.4236C25.8179 32.0359 25.5882 31.69 25.2798 31.4233C24.9714 31.1565 24.5961 30.979 24.1942 30.9098L21.5692 30.3936C21.4989 30.3805 21.4322 30.3527 21.3734 30.3119C21.3146 30.2712 21.265 30.2185 21.228 30.1573L19.9067 27.8473C19.7075 27.5041 19.4216 27.2191 19.0776 27.0211C18.7336 26.823 18.3437 26.7188 17.9467 26.7188C17.5498 26.7188 17.1599 26.823 16.8159 27.0211C16.4719 27.2191 16.186 27.5041 15.9867 27.8473L14.6655 30.1573C14.6027 30.2699 14.4995 30.3544 14.3767 30.3936ZM16.2317 31.0236L17.553 28.7136C17.6009 28.6414 17.6659 28.5822 17.7422 28.5412C17.8186 28.5002 17.9039 28.4788 17.9905 28.4788C18.0771 28.4788 18.1624 28.5002 18.2388 28.5412C18.3151 28.5822 18.3801 28.6414 18.428 28.7136L19.7492 31.0236C19.9085 31.3045 20.1273 31.5473 20.3903 31.7347C20.6533 31.9221 20.9542 32.0497 21.2717 32.1086L23.8967 32.6248C23.9836 32.6412 24.0645 32.6807 24.1307 32.7392C24.1969 32.7978 24.2461 32.8731 24.273 32.9573C24.3018 33.0337 24.3071 33.117 24.2884 33.1964C24.2697 33.2759 24.2278 33.348 24.168 33.4036L22.3742 35.3461C22.1558 35.5783 21.9896 35.8547 21.887 36.1566C21.7844 36.4584 21.7476 36.7788 21.7792 37.0961L22.103 39.7211C22.1113 39.8019 22.0979 39.8835 22.064 39.9573C22.0302 40.0312 21.9772 40.0946 21.9105 40.1411C21.8376 40.2 21.7491 40.2364 21.6558 40.2457C21.5626 40.255 21.4686 40.2369 21.3855 40.1936L18.9267 39.0911C18.6328 38.9571 18.3135 38.8878 17.9905 38.8878C17.6675 38.8878 17.3482 38.9571 17.0542 39.0911L14.5955 40.1936C14.5124 40.2369 14.4184 40.255 14.3252 40.2457C14.2319 40.2364 14.1434 40.2 14.0705 40.1411C14.0038 40.0946 13.9508 40.0312 13.917 39.9573C13.8831 39.8835 13.8697 39.8019 13.878 39.7211L14.2017 37.0961C14.2334 36.7788 14.1966 36.4584 14.094 36.1566C13.9913 35.8547 13.8252 35.5783 13.6067 35.3461L11.7867 33.4036C11.7269 33.348 11.685 33.2759 11.6663 33.1964C11.6476 33.117 11.653 33.0337 11.6817 32.9573C11.7086 32.8731 11.7578 32.7978 11.824 32.7392C11.8903 32.6807 11.9711 32.6412 12.058 32.6248L14.683 32.1086C15.0084 32.0558 15.3178 31.9309 15.5888 31.7432C15.8598 31.5555 16.0854 31.3096 16.2492 31.0236H16.2317Z" fill="#F96161"/>
<path d="M18 23C18.4832 23 18.875 22.6082 18.875 22.125C18.875 21.6418 18.4832 21.25 18 21.25C17.5168 21.25 17.125 21.6418 17.125 22.125C17.125 22.6082 17.5168 23 18 23Z" fill="#F96161"/>
</svg>
