<svg width="54" height="49" viewBox="0 0 54 49" fill="none" xmlns="http://www.w3.org/2000/svg">
<path d="M3.32031 8.2469V5.42503C3.32031 5.2719 3.47344 5.17347 3.60469 5.22815L26.9234 14.1422C26.9672 14.1641 27.0219 14.1641 27.0766 14.1422L50.3953 5.22815C50.5375 5.17347 50.6797 5.28284 50.6797 5.42503V8.2469" stroke="#F96161" stroke-width="1.5" stroke-miterlimit="10" stroke-linecap="round" stroke-linejoin="round"/>
<path d="M6.01074 6.01586V3.13929C6.01074 2.97523 6.18574 2.87679 6.32793 2.95336L26.9014 14.1096C26.967 14.1424 27.0436 14.1424 27.1092 14.1096L47.6717 2.94242C47.8139 2.86586 47.9889 2.96429 47.9889 3.12836V6.01586" stroke="#F96161" stroke-width="1.5" stroke-miterlimit="10" stroke-linecap="round" stroke-linejoin="round"/>
<path d="M9.0293 4.25487V1.42206C9.0293 1.24706 9.22617 1.14862 9.36836 1.24706L26.8684 14.0767C26.9449 14.1314 27.0434 14.1314 27.1199 14.0767L44.6199 1.24706C44.7621 1.14862 44.959 1.24706 44.959 1.42206V4.27674" stroke="#F96161" stroke-width="1.5" stroke-miterlimit="10" stroke-linecap="round" stroke-linejoin="round"/>
<path d="M53.0859 41.4097L27.2078 47.819C27.0984 47.8409 27 47.7643 27 47.655V14.3284C27 14.23 27.0656 14.1425 27.1641 14.1206L52.9875 7.72216C53.1188 7.68934 53.25 7.78778 53.25 7.92997V41.2018C53.25 41.3003 53.1844 41.3878 53.0859 41.4097Z" stroke="#F96161" stroke-width="1.5" stroke-miterlimit="10" stroke-linecap="round" stroke-linejoin="round"/>
<path d="M26.8359 47.83L0.914062 41.4097C0.815625 41.3878 0.75 41.3003 0.75 41.2018V7.92997C0.75 7.78778 0.88125 7.68934 1.0125 7.72216L26.8359 14.1206C26.9344 14.1425 27 14.23 27 14.3284V47.6987C27 47.7972 26.9234 47.8518 26.8359 47.83Z" stroke="#F96161" stroke-width="1.5" stroke-miterlimit="10" stroke-linecap="round" stroke-linejoin="round"/>
<path d="M46.5127 38.6531L34.8533 41.4312C34.7221 41.464 34.5908 41.3656 34.5908 41.2234V35.2515C34.5908 35.1531 34.6564 35.0656 34.7549 35.0437L46.4143 32.2656C46.5455 32.2328 46.6768 32.3312 46.6768 32.4734V38.4453C46.6768 38.5437 46.6111 38.6312 46.5127 38.6531Z" stroke="#F96161" stroke-width="0.5" stroke-miterlimit="10" stroke-linecap="round" stroke-linejoin="round"/>
<path d="M34.6016 37.2967L46.6766 34.4092" stroke="#F96161" stroke-width="0.5" stroke-miterlimit="10" stroke-linecap="round" stroke-linejoin="round"/>
<path d="M34.6016 39.2872L46.6766 36.4106" stroke="#F96161" stroke-width="0.5" stroke-miterlimit="10" stroke-linecap="round" stroke-linejoin="round"/>
</svg>
