<svg width="56" height="57" viewBox="0 0 56 57" fill="none" xmlns="http://www.w3.org/2000/svg">
<g clip-path="url(#clip0_601_38984)">
<path d="M17.7188 7.20862L14.6562 1.375H17.7188L24.6094 7.20862" stroke="#F96161" stroke-width="2" stroke-linejoin="round"/>
<path d="M32.2656 6.625C27.6719 6.625 7 7.9375 7 7.9375L3.17188 4H0.875L1.98013 9.68138C2.15574 10.3379 2.55168 10.9142 3.10159 11.3135C3.6515 11.7129 4.32196 11.9111 5.00063 11.875H19.9395L14.2222 18.875H18.3059L28.1059 11.875H34.5625C37.625 11.875 37.625 9.90625 37.625 9.90625C37.625 9.90625 36.8594 6.625 32.2656 6.625Z" stroke="#F96161" stroke-width="2" stroke-linejoin="round"/>
<path d="M32.375 6.625V9.25H37.625" stroke="#F96161" stroke-width="2" stroke-linejoin="round"/>
<path d="M30.625 29.375H35V27.625H32.375L30.625 24.125H28.875L25.375 27.625H24.5V25L28.875 20.625H30.625L33.25 19.75L32.375 18H28.875L30.625 15.375H35L35.875 17.125H39.375L42.875 16.25H46.375V17.125L50.75 20.625L51.625 23.25L50.75 24.125V25L51.625 25.875V28.5H49.875V30.25L49 32.875H48.125L49.875 34.625V35.5H48.125V39H46.375V35.5L45.5 32L42.875 34.625H42V31.125L38.5 30.25L39.375 32V34.625H36.75L35.875 32H34.125V37.25H38.5V39L35.875 40.75L36.75 42.5V43.375L34.125 47.75H30.625L29.75 43.375V40.75L28.875 39V38.125H24.5L22.75 36.375V32.875L28 28.5H29.75L30.625 29.375Z" stroke="#F96161" stroke-width="2" stroke-linejoin="round"/>
<path d="M50.75 43.375L48.125 41.625L45.5 43.375V49.5" stroke="#F96161" stroke-width="2" stroke-linejoin="round"/>
<path d="M14.875 20.625V22.375L12.25 23.25V25L11.375 25.875L10.5 26.75V28.5H7.875V30.25H9.625L10.5 32.875H11.375H14L15.75 35.5L18.375 38.125L17.5 39.875V41.625L14.875 45.125H13.125L12.25 39.875L10.5 39V35.5L7.875 32L5.25 30.25V22.375H3.5V20.625L7 17.125L11.2 13.625" stroke="#F96161" stroke-width="2" stroke-linejoin="round"/>
<path d="M21.8752 2.06972C27.9711 0.657039 34.3678 1.39535 39.9816 4.15955C45.5953 6.92374 50.0807 11.5438 52.6776 17.2368C55.2746 22.9298 55.8234 29.3456 54.2311 35.397C52.6388 41.4484 49.0032 46.7631 43.9406 50.4406C38.8779 54.1181 32.6994 55.9321 26.4522 55.5753C20.2051 55.2184 14.2734 52.7127 9.66235 48.4827C5.05133 44.2526 2.0446 38.5585 1.15167 32.3652C0.258745 26.1718 1.53454 19.8602 4.76287 14.5" stroke="#F96161" stroke-width="2" stroke-linejoin="round"/>
</g>
<defs>
<clipPath id="clip0_601_38984">
<rect width="56" height="56" fill="white" transform="translate(0 0.5)"/>
</clipPath>
</defs>
</svg>
